<svg version="1.1" viewBox="0.0 0.0 792.0 376.0" fill="none" stroke="none" stroke-linecap="square" stroke-miterlimit="10" width="792" height="376" xmlns:xlink="http://www.w3.org/1999/xlink" xmlns="http://www.w3.org/2000/svg"><path fill="#ffffff" d="M0 0L792.0 0L792.0 376.0L0 376.0L0 0Z" fill-rule="nonzero"/><path stroke="#000000" stroke-width="1.0" stroke-linecap="butt" d="M773.5 337.5L106.5 337.5" fill-rule="nonzero"/><path stroke="#000000" stroke-width="1.0" stroke-linecap="butt" d="M106.5 337.5L106.5 52.5" fill-rule="nonzero"/><clipPath id="id_0"><path d="M106.8 52.333332L773.2 52.333332L773.2 337.2L106.8 337.2L106.8 52.333332Z" clip-rule="nonzero"/></clipPath><path stroke="#000000" stroke-width="2.0" stroke-linecap="butt" stroke-opacity="0.0" clip-path="url(#id_0)" d="M289.0 337.0L275.0 337.0L275.0 302.0C275.0 300.89542 275.89542 300.0 277.0 300.0L287.0 300.0C288.10458 300.0 289.0 300.89542 289.0 302.0Z" fill-rule="nonzero"/><path fill="#4285f4" clip-path="url(#id_0)" d="M289.0 337.0L275.0 337.0L275.0 302.0C275.0 300.89542 275.89542 300.0 277.0 300.0L287.0 300.0C288.10458 300.0 289.0 300.89542 289.0 302.0Z" fill-rule="nonzero"/><path stroke="#000000" stroke-width="2.0" stroke-linecap="butt" stroke-opacity="0.0" clip-path="url(#id_0)" d="M389.0 337.0L375.0 337.0L375.0 330.0C375.0 328.89542 375.89542 328.0 377.0 328.0L387.0 328.0C388.10458 328.0 389.0 328.89542 389.0 330.0Z" fill-rule="nonzero"/><path fill="#4285f4" clip-path="url(#id_0)" d="M389.0 337.0L375.0 337.0L375.0 330.0C375.0 328.89542 375.89542 328.0 377.0 328.0L387.0 328.0C388.10458 328.0 389.0 328.89542 389.0 330.0Z" fill-rule="nonzero"/><path stroke="#000000" stroke-width="2.0" stroke-linecap="butt" stroke-opacity="0.0" clip-path="url(#id_0)" d="M489.0 337.0L475.0 337.0L475.0 334.0C475.0 332.89542 475.89542 332.0 477.0 332.0L487.0 332.0C488.10458 332.0 489.0 332.89542 489.0 334.0Z" fill-rule="nonzero"/><path fill="#4285f4" clip-path="url(#id_0)" d="M489.0 337.0L475.0 337.0L475.0 334.0C475.0 332.89542 475.89542 332.0 477.0 332.0L487.0 332.0C488.10458 332.0 489.0 332.89542 489.0 334.0Z" fill-rule="nonzero"/><path stroke="#000000" stroke-width="2.0" stroke-linecap="butt" stroke-opacity="0.0" clip-path="url(#id_0)" d="M689.0 337.0L675.0 337.0L675.0 81.0C675.0 79.89543 675.89545 79.0 677.0 79.0L687.0 79.0C688.10455 79.0 689.0 79.89543 689.0 81.0Z" fill-rule="nonzero"/><path fill="#4285f4" clip-path="url(#id_0)" d="M689.0 337.0L675.0 337.0L675.0 81.0C675.0 79.89543 675.89545 79.0 677.0 79.0L687.0 79.0C688.10455 79.0 689.0 79.89543 689.0 81.0Z" fill-rule="nonzero"/><path stroke="#000000" stroke-width="2.0" stroke-linecap="butt" stroke-opacity="0.0" clip-path="url(#id_0)" d="M305.0 337.0L291.0 337.0L291.0 333.0C291.0 331.89542 291.89542 331.0 293.0 331.0L303.0 331.0C304.10458 331.0 305.0 331.89542 305.0 333.0Z" fill-rule="nonzero"/><path fill="#ea4335" clip-path="url(#id_0)" d="M305.0 337.0L291.0 337.0L291.0 333.0C291.0 331.89542 291.89542 331.0 293.0 331.0L303.0 331.0C304.10458 331.0 305.0 331.89542 305.0 333.0Z" fill-rule="nonzero"/><path stroke="#000000" stroke-width="2.0" stroke-linecap="butt" stroke-opacity="0.0" clip-path="url(#id_0)" d="M405.0 337.0L391.0 337.0L391.0 337.0L405.0 337.0Z" fill-rule="nonzero"/><path fill="#ea4335" clip-path="url(#id_0)" d="M405.0 337.0L391.0 337.0L391.0 337.0L405.0 337.0Z" fill-rule="nonzero"/><path stroke="#000000" stroke-width="2.0" stroke-linecap="butt" stroke-opacity="0.0" clip-path="url(#id_0)" d="M505.0 337.0L491.0 337.0L491.0 337.0L505.0 337.0Z" fill-rule="nonzero"/><path fill="#ea4335" clip-path="url(#id_0)" d="M505.0 337.0L491.0 337.0L491.0 337.0L505.0 337.0Z" fill-rule="nonzero"/><path stroke="#000000" stroke-width="2.0" stroke-linecap="butt" stroke-opacity="0.0" clip-path="url(#id_0)" d="M705.0 337.0L691.0 337.0L691.0 123.0C691.0 121.89543 691.89545 121.0 693.0 121.0L703.0 121.0C704.10455 121.0 705.0 121.89543 705.0 123.0Z" fill-rule="nonzero"/><path fill="#ea4335" clip-path="url(#id_0)" d="M705.0 337.0L691.0 337.0L691.0 123.0C691.0 121.89543 691.89545 121.0 693.0 121.0L703.0 121.0C704.10455 121.0 705.0 121.89543 705.0 123.0Z" fill-rule="nonzero"/><path stroke="#000000" stroke-width="1.0" stroke-linecap="butt" d="M94.5 337.5L106.5 337.5" fill-rule="nonzero"/><path stroke="#000000" stroke-width="1.0" stroke-linecap="butt" d="M94.5 242.5L106.5 242.5" fill-rule="nonzero"/><path stroke="#000000" stroke-width="1.0" stroke-linecap="butt" d="M94.5 147.5L106.5 147.5" fill-rule="nonzero"/><path stroke="#000000" stroke-width="1.0" stroke-linecap="butt" d="M94.5 52.5L106.5 52.5" fill-rule="nonzero"/><path stroke="#ffffff" stroke-width="3.0" stroke-linejoin="round" stroke-linecap="round" d="M271.26562 285.2243L270.1875 285.2243L270.1875 278.00555L268.0 278.80243L268.0 277.81805L271.10938 276.64618L271.26562 276.64618L271.26562 285.2243ZM274.78125 286.92743L274.17188 286.50555Q274.71875 285.73993 274.75 284.9118L274.75 283.94305L275.8125 283.94305L275.8125 284.7868Q275.8125 285.38055 275.51562 285.9743Q275.21875 286.56805 274.78125 286.92743ZM280.85938 281.4743Q280.53125 281.88055 280.04688 282.13055Q279.57812 282.36493 279.01562 282.36493Q278.28125 282.36493 277.73438 282.00555Q277.1875 281.64618 276.89062 280.98993Q276.59375 280.31805 276.59375 279.52118Q276.59375 278.67743 276.90625 277.98993Q277.23438 277.30243 277.82812 276.94305Q278.4375 276.56805 279.23438 276.56805Q280.5 276.56805 281.21875 277.52118Q281.95312 278.4743 281.95312 280.0993L281.95312 280.4118Q281.95312 282.9118 280.96875 284.05243Q279.98438 285.19305 278.0 285.2243L277.78125 285.2243L277.78125 284.31805L278.01562 284.31805Q279.35938 284.2868 280.07812 283.61493Q280.79688 282.94305 280.85938 281.4743ZM279.1875 281.4743Q279.73438 281.4743 280.1875 281.14618Q280.65625 280.80243 280.875 280.31805L280.875 279.88055Q280.875 278.81805 280.40625 278.14618Q279.9375 277.4743 279.23438 277.4743Q278.51562 277.4743 278.07812 278.02118Q277.65625 278.56805 277.65625 279.4743Q277.65625 280.3493 278.0625 280.9118Q278.48438 281.4743 279.1875 281.4743ZM288.28125 282.36493L289.46875 282.36493L289.46875 283.23993L288.28125 283.23993L288.28125 285.2243L287.20312 285.2243L287.20312 283.23993L283.3125 283.23993L283.3125 282.5993L287.125 276.69305L288.28125 276.69305L288.28125 282.36493ZM284.54688 282.36493L287.20312 282.36493L287.20312 278.17743L287.0625 278.4118L284.54688 282.36493ZM296.21875 277.30243L292.6875 285.2243L291.54688 285.2243L295.0625 277.58368L290.45312 277.58368L290.45312 276.69305L296.21875 276.69305L296.21875 277.30243Z" fill-rule="nonzero"/><path fill="#4285f4" d="M271.26562 285.2243L270.1875 285.2243L270.1875 278.00555L268.0 278.80243L268.0 277.81805L271.10938 276.64618L271.26562 276.64618L271.26562 285.2243ZM274.78125 286.92743L274.17188 286.50555Q274.71875 285.73993 274.75 284.9118L274.75 283.94305L275.8125 283.94305L275.8125 284.7868Q275.8125 285.38055 275.51562 285.9743Q275.21875 286.56805 274.78125 286.92743ZM280.85938 281.4743Q280.53125 281.88055 280.04688 282.13055Q279.57812 282.36493 279.01562 282.36493Q278.28125 282.36493 277.73438 282.00555Q277.1875 281.64618 276.89062 280.98993Q276.59375 280.31805 276.59375 279.52118Q276.59375 278.67743 276.90625 277.98993Q277.23438 277.30243 277.82812 276.94305Q278.4375 276.56805 279.23438 276.56805Q280.5 276.56805 281.21875 277.52118Q281.95312 278.4743 281.95312 280.0993L281.95312 280.4118Q281.95312 282.9118 280.96875 284.05243Q279.98438 285.19305 278.0 285.2243L277.78125 285.2243L277.78125 284.31805L278.01562 284.31805Q279.35938 284.2868 280.07812 283.61493Q280.79688 282.94305 280.85938 281.4743ZM279.1875 281.4743Q279.73438 281.4743 280.1875 281.14618Q280.65625 280.80243 280.875 280.31805L280.875 279.88055Q280.875 278.81805 280.40625 278.14618Q279.9375 277.4743 279.23438 277.4743Q278.51562 277.4743 278.07812 278.02118Q277.65625 278.56805 277.65625 279.4743Q277.65625 280.3493 278.0625 280.9118Q278.48438 281.4743 279.1875 281.4743ZM288.28125 282.36493L289.46875 282.36493L289.46875 283.23993L288.28125 283.23993L288.28125 285.2243L287.20312 285.2243L287.20312 283.23993L283.3125 283.23993L283.3125 282.5993L287.125 276.69305L288.28125 276.69305L288.28125 282.36493ZM284.54688 282.36493L287.20312 282.36493L287.20312 278.17743L287.0625 278.4118L284.54688 282.36493ZM296.21875 277.30243L292.6875 285.2243L291.54688 285.2243L295.0625 277.58368L290.45312 277.58368L290.45312 276.69305L296.21875 276.69305L296.21875 277.30243Z" fill-rule="nonzero"/><path stroke="#ffffff" stroke-width="3.0" stroke-linejoin="round" stroke-linecap="round" d="M372.70312 308.4232L373.14062 304.1732L377.51562 304.1732L377.51562 305.1732L374.0625 305.1732L373.79688 307.5013Q374.4375 307.1263 375.23438 307.1263Q376.39062 307.1263 377.07812 307.90756Q377.76562 308.6732 377.76562 309.9857Q377.76562 311.2982 377.04688 312.0638Q376.34375 312.82944 375.0625 312.82944Q373.9375 312.82944 373.21875 312.20444Q372.5 311.5638 372.40625 310.45444L373.42188 310.45444Q373.53125 311.1888 373.95312 311.5638Q374.375 311.9388 375.0625 311.9388Q375.8125 311.9388 376.25 311.4232Q376.6875 310.90756 376.6875 310.0013Q376.6875 309.14194 376.21875 308.6263Q375.75 308.1107 374.96875 308.1107Q374.26562 308.1107 373.85938 308.40756L373.57812 308.64194L372.70312 308.4232ZM384.5625 309.0638Q384.5625 310.97006 383.90625 311.90756Q383.26562 312.82944 381.875 312.82944Q380.51562 312.82944 379.85938 311.9232Q379.20312 311.01694 379.17188 309.20444L379.17188 307.76694Q379.17188 305.8763 379.8125 304.97006Q380.46875 304.0482 381.85938 304.0482Q383.23438 304.0482 383.89062 304.9388Q384.54688 305.8138 384.5625 307.65756L384.5625 309.0638ZM383.46875 307.57944Q383.46875 306.20444 383.07812 305.57944Q382.70312 304.9388 381.85938 304.9388Q381.03125 304.9388 380.64062 305.57944Q380.26562 306.20444 380.26562 307.5013L380.26562 309.2357Q380.26562 310.6107 380.65625 311.28256Q381.0625 311.9388 381.875 311.9388Q382.67188 311.9388 383.0625 311.3138Q383.45312 310.6888 383.46875 309.3607L383.46875 307.57944ZM391.5625 309.0638Q391.5625 310.97006 390.90625 311.90756Q390.26562 312.82944 388.875 312.82944Q387.51562 312.82944 386.85938 311.9232Q386.20312 311.01694 386.17188 309.20444L386.17188 307.76694Q386.17188 305.8763 386.8125 304.97006Q387.46875 304.0482 388.85938 304.0482Q390.23438 304.0482 390.89062 304.9388Q391.54688 305.8138 391.5625 307.65756L391.5625 309.0638ZM390.46875 307.57944Q390.46875 306.20444 390.07812 305.57944Q389.70312 304.9388 388.85938 304.9388Q388.03125 304.9388 387.64062 305.57944Q387.26562 306.20444 387.26562 307.5013L387.26562 309.2357Q387.26562 310.6107 387.65625 311.28256Q388.0625 311.9388 388.875 311.9388Q389.67188 311.9388 390.0625 311.3138Q390.45312 310.6888 390.46875 309.3607L390.46875 307.57944Z" fill-rule="nonzero"/><path fill="#4285f4" d="M372.70312 308.4232L373.14062 304.1732L377.51562 304.1732L377.51562 305.1732L374.0625 305.1732L373.79688 307.5013Q374.4375 307.1263 375.23438 307.1263Q376.39062 307.1263 377.07812 307.90756Q377.76562 308.6732 377.76562 309.9857Q377.76562 311.2982 377.04688 312.0638Q376.34375 312.82944 375.0625 312.82944Q373.9375 312.82944 373.21875 312.20444Q372.5 311.5638 372.40625 310.45444L373.42188 310.45444Q373.53125 311.1888 373.95312 311.5638Q374.375 311.9388 375.0625 311.9388Q375.8125 311.9388 376.25 311.4232Q376.6875 310.90756 376.6875 310.0013Q376.6875 309.14194 376.21875 308.6263Q375.75 308.1107 374.96875 308.1107Q374.26562 308.1107 373.85938 308.40756L373.57812 308.64194L372.70312 308.4232ZM384.5625 309.0638Q384.5625 310.97006 383.90625 311.90756Q383.26562 312.82944 381.875 312.82944Q380.51562 312.82944 379.85938 311.9232Q379.20312 311.01694 379.17188 309.20444L379.17188 307.76694Q379.17188 305.8763 379.8125 304.97006Q380.46875 304.0482 381.85938 304.0482Q383.23438 304.0482 383.89062 304.9388Q384.54688 305.8138 384.5625 307.65756L384.5625 309.0638ZM383.46875 307.57944Q383.46875 306.20444 383.07812 305.57944Q382.70312 304.9388 381.85938 304.9388Q381.03125 304.9388 380.64062 305.57944Q380.26562 306.20444 380.26562 307.5013L380.26562 309.2357Q380.26562 310.6107 380.65625 311.28256Q381.0625 311.9388 381.875 311.9388Q382.67188 311.9388 383.0625 311.3138Q383.45312 310.6888 383.46875 309.3607L383.46875 307.57944ZM391.5625 309.0638Q391.5625 310.97006 390.90625 311.90756Q390.26562 312.82944 388.875 312.82944Q387.51562 312.82944 386.85938 311.9232Q386.20312 311.01694 386.17188 309.20444L386.17188 307.76694Q386.17188 305.8763 386.8125 304.97006Q387.46875 304.0482 388.85938 304.0482Q390.23438 304.0482 390.89062 304.9388Q391.54688 305.8138 391.5625 307.65756L391.5625 309.0638ZM390.46875 307.57944Q390.46875 306.20444 390.07812 305.57944Q389.70312 304.9388 388.85938 304.9388Q388.03125 304.9388 387.64062 305.57944Q387.26562 306.20444 387.26562 307.5013L387.26562 309.2357Q387.26562 310.6107 387.65625 311.28256Q388.0625 311.9388 388.875 311.9388Q389.67188 311.9388 390.0625 311.3138Q390.45312 310.6888 390.46875 309.3607L390.46875 307.57944Z" fill-rule="nonzero"/><path stroke="#ffffff" stroke-width="3.0" stroke-linejoin="round" stroke-linecap="round" d="M477.79688 317.4522L472.20312 317.4522L472.20312 316.67096L475.15625 313.3897Q475.8125 312.6397 476.0625 312.18658Q476.3125 311.71783 476.3125 311.21783Q476.3125 310.54596 475.90625 310.12408Q475.51562 309.68658 474.82812 309.68658Q474.03125 309.68658 473.57812 310.15533Q473.125 310.60846 473.125 311.43658L472.04688 311.43658Q472.04688 310.24908 472.79688 309.53033Q473.5625 308.79596 474.82812 308.79596Q476.03125 308.79596 476.71875 309.42096Q477.40625 310.04596 477.40625 311.09283Q477.40625 312.34283 475.79688 314.09283L473.51562 316.56158L477.79688 316.56158L477.79688 317.4522ZM479.70312 313.17096L480.14062 308.92096L484.51562 308.92096L484.51562 309.92096L481.0625 309.92096L480.79688 312.24908Q481.4375 311.87408 482.23438 311.87408Q483.39062 311.87408 484.07812 312.65533Q484.76562 313.42096 484.76562 314.73346Q484.76562 316.04596 484.04688 316.81158Q483.34375 317.5772 482.0625 317.5772Q480.9375 317.5772 480.21875 316.9522Q479.5 316.31158 479.40625 315.2022L480.42188 315.2022Q480.53125 315.93658 480.95312 316.31158Q481.375 316.68658 482.0625 316.68658Q482.8125 316.68658 483.25 316.17096Q483.6875 315.65533 483.6875 314.74908Q483.6875 313.8897 483.21875 313.37408Q482.75 312.85846 481.96875 312.85846Q481.26562 312.85846 480.85938 313.15533L480.57812 313.3897L479.70312 313.17096ZM491.5625 313.81158Q491.5625 315.71783 490.90625 316.65533Q490.26562 317.5772 488.875 317.5772Q487.51562 317.5772 486.85938 316.67096Q486.20312 315.7647 486.17188 313.9522L486.17188 312.5147Q486.17188 310.62408 486.8125 309.71783Q487.46875 308.79596 488.85938 308.79596Q490.23438 308.79596 490.89062 309.68658Q491.54688 310.56158 491.5625 312.40533L491.5625 313.81158ZM490.46875 312.3272Q490.46875 310.9522 490.07812 310.3272Q489.70312 309.68658 488.85938 309.68658Q488.03125 309.68658 487.64062 310.3272Q487.26562 310.9522 487.26562 312.24908L487.26562 313.98346Q487.26562 315.35846 487.65625 316.03033Q488.0625 316.68658 488.875 316.68658Q489.67188 316.68658 490.0625 316.06158Q490.45312 315.43658 490.46875 314.10846L490.46875 312.3272Z" fill-rule="nonzero"/><path fill="#4285f4" d="M477.79688 317.4522L472.20312 317.4522L472.20312 316.67096L475.15625 313.3897Q475.8125 312.6397 476.0625 312.18658Q476.3125 311.71783 476.3125 311.21783Q476.3125 310.54596 475.90625 310.12408Q475.51562 309.68658 474.82812 309.68658Q474.03125 309.68658 473.57812 310.15533Q473.125 310.60846 473.125 311.43658L472.04688 311.43658Q472.04688 310.24908 472.79688 309.53033Q473.5625 308.79596 474.82812 308.79596Q476.03125 308.79596 476.71875 309.42096Q477.40625 310.04596 477.40625 311.09283Q477.40625 312.34283 475.79688 314.09283L473.51562 316.56158L477.79688 316.56158L477.79688 317.4522ZM479.70312 313.17096L480.14062 308.92096L484.51562 308.92096L484.51562 309.92096L481.0625 309.92096L480.79688 312.24908Q481.4375 311.87408 482.23438 311.87408Q483.39062 311.87408 484.07812 312.65533Q484.76562 313.42096 484.76562 314.73346Q484.76562 316.04596 484.04688 316.81158Q483.34375 317.5772 482.0625 317.5772Q480.9375 317.5772 480.21875 316.9522Q479.5 316.31158 479.40625 315.2022L480.42188 315.2022Q480.53125 315.93658 480.95312 316.31158Q481.375 316.68658 482.0625 316.68658Q482.8125 316.68658 483.25 316.17096Q483.6875 315.65533 483.6875 314.74908Q483.6875 313.8897 483.21875 313.37408Q482.75 312.85846 481.96875 312.85846Q481.26562 312.85846 480.85938 313.15533L480.57812 313.3897L479.70312 313.17096ZM491.5625 313.81158Q491.5625 315.71783 490.90625 316.65533Q490.26562 317.5772 488.875 317.5772Q487.51562 317.5772 486.85938 316.67096Q486.20312 315.7647 486.17188 313.9522L486.17188 312.5147Q486.17188 310.62408 486.8125 309.71783Q487.46875 308.79596 488.85938 308.79596Q490.23438 308.79596 490.89062 309.68658Q491.54688 310.56158 491.5625 312.40533L491.5625 313.81158ZM490.46875 312.3272Q490.46875 310.9522 490.07812 310.3272Q489.70312 309.68658 488.85938 309.68658Q488.03125 309.68658 487.64062 310.3272Q487.26562 310.9522 487.26562 312.24908L487.26562 313.98346Q487.26562 315.35846 487.65625 316.03033Q488.0625 316.68658 488.875 316.68658Q489.67188 316.68658 490.0625 316.06158Q490.45312 315.43658 490.46875 314.10846L490.46875 312.3272Z" fill-rule="nonzero"/><path stroke="#ffffff" stroke-width="3.0" stroke-linejoin="round" stroke-linecap="round" d="M667.7656 64.49062L666.6875 64.49062L666.6875 57.271873L664.5 58.06875L664.5 57.084373L667.6094 55.9125L667.7656 55.9125L667.7656 64.49062ZM672.78125 59.69375L673.59375 59.69375Q674.375 59.678123 674.8125 59.2875Q675.25 58.896873 675.25 58.225Q675.25 56.725 673.75 56.725Q673.0469 56.725 672.625 57.13125Q672.21875 57.5375 672.21875 58.19375L671.125 58.19375Q671.125 57.178123 671.8594 56.50625Q672.6094 55.834373 673.75 55.834373Q674.9531 55.834373 675.6406 56.475Q676.3281 57.115623 676.3281 58.25625Q676.3281 58.81875 675.96875 59.334373Q675.6094 59.85 674.9844 60.115623Q675.6875 60.334373 676.0625 60.85Q676.4531 61.365623 676.4531 62.115623Q676.4531 63.25625 675.7031 63.94375Q674.9531 64.61562 673.75 64.61562Q672.5625 64.61562 671.7969 63.959373Q671.0469 63.303123 671.0469 62.240623L672.1406 62.240623Q672.1406 62.9125 672.5781 63.31875Q673.0156 63.725 673.7656 63.725Q674.5469 63.725 674.9531 63.31875Q675.375 62.896873 675.375 62.13125Q675.375 61.396873 674.9219 61.00625Q674.46875 60.6 673.59375 60.584373L672.78125 60.584373L672.78125 59.69375ZM678.28125 66.19375L677.6719 65.77187Q678.21875 65.00625 678.25 64.17812L678.25 63.209373L679.3125 63.209373L679.3125 64.05312Q679.3125 64.64687 679.0156 65.24062Q678.71875 65.83437 678.28125 66.19375ZM680.7031 60.209373L681.1406 55.959373L685.5156 55.959373L685.5156 56.959373L682.0625 56.959373L681.7969 59.2875Q682.4375 58.9125 683.2344 58.9125Q684.3906 58.9125 685.0781 59.69375Q685.7656 60.459373 685.7656 61.771873Q685.7656 63.084373 685.0469 63.85Q684.34375 64.61562 683.0625 64.61562Q681.9375 64.61562 681.21875 63.990623Q680.5 63.35 680.40625 62.240623L681.4219 62.240623Q681.53125 62.975 681.9531 63.35Q682.375 63.725 683.0625 63.725Q683.8125 63.725 684.25 63.209373Q684.6875 62.69375 684.6875 61.7875Q684.6875 60.928123 684.21875 60.4125Q683.75 59.896873 682.96875 59.896873Q682.2656 59.896873 681.8594 60.19375L681.5781 60.428123L680.7031 60.209373ZM692.71875 56.56875L689.1875 64.49062L688.0469 64.49062L691.5625 56.85L686.9531 56.85L686.9531 55.959373L692.71875 55.959373L692.71875 56.56875ZM699.5625 60.85Q699.5625 62.75625 698.90625 63.69375Q698.2656 64.61562 696.875 64.61562Q695.5156 64.61562 694.8594 63.709373Q694.2031 62.803123 694.1719 60.990623L694.1719 59.553123Q694.1719 57.6625 694.8125 56.75625Q695.46875 55.834373 696.8594 55.834373Q698.2344 55.834373 698.8906 56.725Q699.5469 57.6 699.5625 59.44375L699.5625 60.85ZM698.46875 59.365623Q698.46875 57.990623 698.0781 57.365623Q697.7031 56.725 696.8594 56.725Q696.03125 56.725 695.6406 57.365623Q695.2656 57.990623 695.2656 59.2875L695.2656 61.021873Q695.2656 62.396873 695.65625 63.06875Q696.0625 63.725 696.875 63.725Q697.6719 63.725 698.0625 63.1Q698.4531 62.475 698.46875 61.146873L698.46875 59.365623Z" fill-rule="nonzero"/><path fill="#4285f4" d="M667.7656 64.49062L666.6875 64.49062L666.6875 57.271873L664.5 58.06875L664.5 57.084373L667.6094 55.9125L667.7656 55.9125L667.7656 64.49062ZM672.78125 59.69375L673.59375 59.69375Q674.375 59.678123 674.8125 59.2875Q675.25 58.896873 675.25 58.225Q675.25 56.725 673.75 56.725Q673.0469 56.725 672.625 57.13125Q672.21875 57.5375 672.21875 58.19375L671.125 58.19375Q671.125 57.178123 671.8594 56.50625Q672.6094 55.834373 673.75 55.834373Q674.9531 55.834373 675.6406 56.475Q676.3281 57.115623 676.3281 58.25625Q676.3281 58.81875 675.96875 59.334373Q675.6094 59.85 674.9844 60.115623Q675.6875 60.334373 676.0625 60.85Q676.4531 61.365623 676.4531 62.115623Q676.4531 63.25625 675.7031 63.94375Q674.9531 64.61562 673.75 64.61562Q672.5625 64.61562 671.7969 63.959373Q671.0469 63.303123 671.0469 62.240623L672.1406 62.240623Q672.1406 62.9125 672.5781 63.31875Q673.0156 63.725 673.7656 63.725Q674.5469 63.725 674.9531 63.31875Q675.375 62.896873 675.375 62.13125Q675.375 61.396873 674.9219 61.00625Q674.46875 60.6 673.59375 60.584373L672.78125 60.584373L672.78125 59.69375ZM678.28125 66.19375L677.6719 65.77187Q678.21875 65.00625 678.25 64.17812L678.25 63.209373L679.3125 63.209373L679.3125 64.05312Q679.3125 64.64687 679.0156 65.24062Q678.71875 65.83437 678.28125 66.19375ZM680.7031 60.209373L681.1406 55.959373L685.5156 55.959373L685.5156 56.959373L682.0625 56.959373L681.7969 59.2875Q682.4375 58.9125 683.2344 58.9125Q684.3906 58.9125 685.0781 59.69375Q685.7656 60.459373 685.7656 61.771873Q685.7656 63.084373 685.0469 63.85Q684.34375 64.61562 683.0625 64.61562Q681.9375 64.61562 681.21875 63.990623Q680.5 63.35 680.40625 62.240623L681.4219 62.240623Q681.53125 62.975 681.9531 63.35Q682.375 63.725 683.0625 63.725Q683.8125 63.725 684.25 63.209373Q684.6875 62.69375 684.6875 61.7875Q684.6875 60.928123 684.21875 60.4125Q683.75 59.896873 682.96875 59.896873Q682.2656 59.896873 681.8594 60.19375L681.5781 60.428123L680.7031 60.209373ZM692.71875 56.56875L689.1875 64.49062L688.0469 64.49062L691.5625 56.85L686.9531 56.85L686.9531 55.959373L692.71875 55.959373L692.71875 56.56875ZM699.5625 60.85Q699.5625 62.75625 698.90625 63.69375Q698.2656 64.61562 696.875 64.61562Q695.5156 64.61562 694.8594 63.709373Q694.2031 62.803123 694.1719 60.990623L694.1719 59.553123Q694.1719 57.6625 694.8125 56.75625Q695.46875 55.834373 696.8594 55.834373Q698.2344 55.834373 698.8906 56.725Q699.5469 57.6 699.5625 59.44375L699.5625 60.85ZM698.46875 59.365623Q698.46875 57.990623 698.0781 57.365623Q697.7031 56.725 696.8594 56.725Q696.03125 56.725 695.6406 57.365623Q695.2656 57.990623 695.2656 59.2875L695.2656 61.021873Q695.2656 62.396873 695.65625 63.06875Q696.0625 63.725 696.875 63.725Q697.6719 63.725 698.0625 63.1Q698.4531 62.475 698.46875 61.146873L698.46875 59.365623Z" fill-rule="nonzero"/><path stroke="#ffffff" stroke-width="3.0" stroke-linejoin="round" stroke-linecap="round" d="M289.78125 311.38293L290.59375 311.38293Q291.375 311.3673 291.8125 310.97668Q292.25 310.58606 292.25 309.91418Q292.25 308.41418 290.75 308.41418Q290.04688 308.41418 289.625 308.82043Q289.21875 309.22668 289.21875 309.88293L288.125 309.88293Q288.125 308.8673 288.85938 308.19543Q289.60938 307.52356 290.75 307.52356Q291.95312 307.52356 292.64062 308.16418Q293.32812 308.8048 293.32812 309.94543Q293.32812 310.50793 292.96875 311.02356Q292.60938 311.53918 291.98438 311.8048Q292.6875 312.02356 293.0625 312.53918Q293.45312 313.0548 293.45312 313.8048Q293.45312 314.94543 292.70312 315.63293Q291.95312 316.3048 290.75 316.3048Q289.5625 316.3048 288.79688 315.64856Q288.04688 314.9923 288.04688 313.9298L289.14062 313.9298Q289.14062 314.60168 289.57812 315.00793Q290.01562 315.41418 290.76562 315.41418Q291.54688 315.41418 291.95312 315.00793Q292.375 314.58606 292.375 313.82043Q292.375 313.08606 291.92188 312.69543Q291.46875 312.28918 290.59375 312.27356L289.78125 312.27356L289.78125 311.38293ZM298.76562 316.1798L297.6875 316.1798L297.6875 308.96106L295.5 309.75793L295.5 308.77356L298.60938 307.60168L298.76562 307.60168L298.76562 316.1798ZM307.71875 308.25793L304.1875 316.1798L303.04688 316.1798L306.5625 308.53918L301.95312 308.53918L301.95312 307.64856L307.71875 307.64856L307.71875 308.25793Z" fill-rule="nonzero"/><path fill="#ea4335" d="M289.78125 311.38293L290.59375 311.38293Q291.375 311.3673 291.8125 310.97668Q292.25 310.58606 292.25 309.91418Q292.25 308.41418 290.75 308.41418Q290.04688 308.41418 289.625 308.82043Q289.21875 309.22668 289.21875 309.88293L288.125 309.88293Q288.125 308.8673 288.85938 308.19543Q289.60938 307.52356 290.75 307.52356Q291.95312 307.52356 292.64062 308.16418Q293.32812 308.8048 293.32812 309.94543Q293.32812 310.50793 292.96875 311.02356Q292.60938 311.53918 291.98438 311.8048Q292.6875 312.02356 293.0625 312.53918Q293.45312 313.0548 293.45312 313.8048Q293.45312 314.94543 292.70312 315.63293Q291.95312 316.3048 290.75 316.3048Q289.5625 316.3048 288.79688 315.64856Q288.04688 314.9923 288.04688 313.9298L289.14062 313.9298Q289.14062 314.60168 289.57812 315.00793Q290.01562 315.41418 290.76562 315.41418Q291.54688 315.41418 291.95312 315.00793Q292.375 314.58606 292.375 313.82043Q292.375 313.08606 291.92188 312.69543Q291.46875 312.28918 290.59375 312.27356L289.78125 312.27356L289.78125 311.38293ZM298.76562 316.1798L297.6875 316.1798L297.6875 308.96106L295.5 309.75793L295.5 308.77356L298.60938 307.60168L298.76562 307.60168L298.76562 316.1798ZM307.71875 308.25793L304.1875 316.1798L303.04688 316.1798L306.5625 308.53918L301.95312 308.53918L301.95312 307.64856L307.71875 307.64856L307.71875 308.25793Z" fill-rule="nonzero"/><path stroke="#ffffff" stroke-width="3.0" stroke-linejoin="round" stroke-linecap="round" d="M400.5625 318.5594Q400.5625 320.46564 399.90625 321.40314Q399.26562 322.325 397.875 322.325Q396.51562 322.325 395.85938 321.41876Q395.20312 320.5125 395.17188 318.7L395.17188 317.2625Q395.17188 315.3719 395.8125 314.46564Q396.46875 313.54376 397.85938 313.54376Q399.23438 313.54376 399.89062 314.4344Q400.54688 315.3094 400.5625 317.15314L400.5625 318.5594ZM399.46875 317.075Q399.46875 315.7 399.07812 315.075Q398.70312 314.4344 397.85938 314.4344Q397.03125 314.4344 396.64062 315.075Q396.26562 315.7 396.26562 316.9969L396.26562 318.73126Q396.26562 320.10626 396.65625 320.77814Q397.0625 321.4344 397.875 321.4344Q398.67188 321.4344 399.0625 320.8094Q399.45312 320.1844 399.46875 318.85626L399.46875 317.075Z" fill-rule="nonzero"/><path fill="#ea4335" d="M400.5625 318.5594Q400.5625 320.46564 399.90625 321.40314Q399.26562 322.325 397.875 322.325Q396.51562 322.325 395.85938 321.41876Q395.20312 320.5125 395.17188 318.7L395.17188 317.2625Q395.17188 315.3719 395.8125 314.46564Q396.46875 313.54376 397.85938 313.54376Q399.23438 313.54376 399.89062 314.4344Q400.54688 315.3094 400.5625 317.15314L400.5625 318.5594ZM399.46875 317.075Q399.46875 315.7 399.07812 315.075Q398.70312 314.4344 397.85938 314.4344Q397.03125 314.4344 396.64062 315.075Q396.26562 315.7 396.26562 316.9969L396.26562 318.73126Q396.26562 320.10626 396.65625 320.77814Q397.0625 321.4344 397.875 321.4344Q398.67188 321.4344 399.0625 320.8094Q399.45312 320.1844 399.46875 318.85626L399.46875 317.075Z" fill-rule="nonzero"/><path stroke="#ffffff" stroke-width="3.0" stroke-linejoin="round" stroke-linecap="round" d="M500.5625 318.5594Q500.5625 320.46564 499.90625 321.40314Q499.26562 322.325 497.875 322.325Q496.51562 322.325 495.85938 321.41876Q495.20312 320.5125 495.17188 318.7L495.17188 317.2625Q495.17188 315.3719 495.8125 314.46564Q496.46875 313.54376 497.85938 313.54376Q499.23438 313.54376 499.89062 314.4344Q500.54688 315.3094 500.5625 317.15314L500.5625 318.5594ZM499.46875 317.075Q499.46875 315.7 499.07812 315.075Q498.70312 314.4344 497.85938 314.4344Q497.03125 314.4344 496.64062 315.075Q496.26562 315.7 496.26562 316.9969L496.26562 318.73126Q496.26562 320.10626 496.65625 320.77814Q497.0625 321.4344 497.875 321.4344Q498.67188 321.4344 499.0625 320.8094Q499.45312 320.1844 499.46875 318.85626L499.46875 317.075Z" fill-rule="nonzero"/><path fill="#ea4335" d="M500.5625 318.5594Q500.5625 320.46564 499.90625 321.40314Q499.26562 322.325 497.875 322.325Q496.51562 322.325 495.85938 321.41876Q495.20312 320.5125 495.17188 318.7L495.17188 317.2625Q495.17188 315.3719 495.8125 314.46564Q496.46875 313.54376 497.85938 313.54376Q499.23438 313.54376 499.89062 314.4344Q500.54688 315.3094 500.5625 317.15314L500.5625 318.5594ZM499.46875 317.075Q499.46875 315.7 499.07812 315.075Q498.70312 314.4344 497.85938 314.4344Q497.03125 314.4344 496.64062 315.075Q496.26562 315.7 496.26562 316.9969L496.26562 318.73126Q496.26562 320.10626 496.65625 320.77814Q497.0625 321.4344 497.875 321.4344Q498.67188 321.4344 499.0625 320.8094Q499.45312 320.1844 499.46875 318.85626L499.46875 317.075Z" fill-rule="nonzero"/><path stroke="#ffffff" stroke-width="3.0" stroke-linejoin="round" stroke-linecap="round" d="M683.7656 106.233086L682.6875 106.233086L682.6875 99.014336L680.5 99.81121L680.5 98.826836L683.6094 97.65496L683.7656 97.65496L683.7656 106.233086ZM690.7656 106.233086L689.6875 106.233086L689.6875 99.014336L687.5 99.81121L687.5 98.826836L690.6094 97.65496L690.7656 97.65496L690.7656 106.233086ZM694.28125 107.93621L693.6719 107.514336Q694.21875 106.74871 694.25 105.920586L694.25 104.951836L695.3125 104.951836L695.3125 105.795586Q695.3125 106.389336 695.0156 106.983086Q694.71875 107.576836 694.28125 107.93621ZM697.78125 101.43621L698.59375 101.43621Q699.375 101.420586 699.8125 101.02996Q700.25 100.639336 700.25 99.96746Q700.25 98.46746 698.75 98.46746Q698.0469 98.46746 697.625 98.87371Q697.21875 99.27996 697.21875 99.93621L696.125 99.93621Q696.125 98.920586 696.8594 98.24871Q697.6094 97.576836 698.75 97.576836Q699.9531 97.576836 700.6406 98.21746Q701.3281 98.858086 701.3281 99.99871Q701.3281 100.56121 700.96875 101.076836Q700.6094 101.59246 699.9844 101.858086Q700.6875 102.076836 701.0625 102.59246Q701.4531 103.108086 701.4531 103.858086Q701.4531 104.99871 700.7031 105.68621Q699.9531 106.358086 698.75 106.358086Q697.5625 106.358086 696.7969 105.701836Q696.0469 105.045586 696.0469 103.983086L697.1406 103.983086Q697.1406 104.65496 697.5781 105.06121Q698.0156 105.46746 698.7656 105.46746Q699.5469 105.46746 699.9531 105.06121Q700.375 104.639336 700.375 103.87371Q700.375 103.139336 699.9219 102.74871Q699.46875 102.34246 698.59375 102.326836L697.78125 102.326836L697.78125 101.43621ZM708.71875 98.31121L705.1875 106.233086L704.0469 106.233086L707.5625 98.59246L702.9531 98.59246L702.9531 97.701836L708.71875 97.701836L708.71875 98.31121ZM715.7969 106.233086L710.2031 106.233086L710.2031 105.451836L713.15625 102.170586Q713.8125 101.420586 714.0625 100.96746Q714.3125 100.49871 714.3125 99.99871Q714.3125 99.326836 713.90625 98.90496Q713.5156 98.46746 712.8281 98.46746Q712.03125 98.46746 711.5781 98.93621Q711.125 99.389336 711.125 100.21746L710.0469 100.21746Q710.0469 99.02996 710.7969 98.31121Q711.5625 97.576836 712.8281 97.576836Q714.03125 97.576836 714.71875 98.201836Q715.40625 98.826836 715.40625 99.87371Q715.40625 101.12371 713.7969 102.87371L711.5156 105.34246L715.7969 105.34246L715.7969 106.233086Z" fill-rule="nonzero"/><path fill="#ea4335" d="M683.7656 106.233086L682.6875 106.233086L682.6875 99.014336L680.5 99.81121L680.5 98.826836L683.6094 97.65496L683.7656 97.65496L683.7656 106.233086ZM690.7656 106.233086L689.6875 106.233086L689.6875 99.014336L687.5 99.81121L687.5 98.826836L690.6094 97.65496L690.7656 97.65496L690.7656 106.233086ZM694.28125 107.93621L693.6719 107.514336Q694.21875 106.74871 694.25 105.920586L694.25 104.951836L695.3125 104.951836L695.3125 105.795586Q695.3125 106.389336 695.0156 106.983086Q694.71875 107.576836 694.28125 107.93621ZM697.78125 101.43621L698.59375 101.43621Q699.375 101.420586 699.8125 101.02996Q700.25 100.639336 700.25 99.96746Q700.25 98.46746 698.75 98.46746Q698.0469 98.46746 697.625 98.87371Q697.21875 99.27996 697.21875 99.93621L696.125 99.93621Q696.125 98.920586 696.8594 98.24871Q697.6094 97.576836 698.75 97.576836Q699.9531 97.576836 700.6406 98.21746Q701.3281 98.858086 701.3281 99.99871Q701.3281 100.56121 700.96875 101.076836Q700.6094 101.59246 699.9844 101.858086Q700.6875 102.076836 701.0625 102.59246Q701.4531 103.108086 701.4531 103.858086Q701.4531 104.99871 700.7031 105.68621Q699.9531 106.358086 698.75 106.358086Q697.5625 106.358086 696.7969 105.701836Q696.0469 105.045586 696.0469 103.983086L697.1406 103.983086Q697.1406 104.65496 697.5781 105.06121Q698.0156 105.46746 698.7656 105.46746Q699.5469 105.46746 699.9531 105.06121Q700.375 104.639336 700.375 103.87371Q700.375 103.139336 699.9219 102.74871Q699.46875 102.34246 698.59375 102.326836L697.78125 102.326836L697.78125 101.43621ZM708.71875 98.31121L705.1875 106.233086L704.0469 106.233086L707.5625 98.59246L702.9531 98.59246L702.9531 97.701836L708.71875 97.701836L708.71875 98.31121ZM715.7969 106.233086L710.2031 106.233086L710.2031 105.451836L713.15625 102.170586Q713.8125 101.420586 714.0625 100.96746Q714.3125 100.49871 714.3125 99.99871Q714.3125 99.326836 713.90625 98.90496Q713.5156 98.46746 712.8281 98.46746Q712.03125 98.46746 711.5781 98.93621Q711.125 99.389336 711.125 100.21746L710.0469 100.21746Q710.0469 99.02996 710.7969 98.31121Q711.5625 97.576836 712.8281 97.576836Q714.03125 97.576836 714.71875 98.201836Q715.40625 98.826836 715.40625 99.87371Q715.40625 101.12371 713.7969 102.87371L711.5156 105.34246L715.7969 105.34246L715.7969 106.233086Z" fill-rule="nonzero"/><path fill="#000000" d="M29.800013 257.3448L21.206263 257.3448L21.206263 256.18854L27.956263 251.67291L21.206263 251.67291L21.206263 250.57916L29.800013 250.57916L29.800013 251.75104L23.050013 256.26666L29.800013 256.26666L29.800013 257.3448ZM29.800013 244.39166L28.878138 244.39166Q29.940638 245.12604 29.940638 246.37604Q29.940638 246.92291 29.737513 247.40729Q29.518763 247.87604 29.206263 248.11041Q28.878138 248.34479 28.409388 248.43854Q28.112513 248.50104 27.425013 248.50104L23.581263 248.50104L23.581263 247.43854L27.034388 247.43854Q27.846888 247.43854 28.143763 247.37604Q28.550013 247.28229 28.800013 246.96979Q29.034388 246.64166 29.034388 246.15729Q29.034388 245.68854 28.800013 245.28229Q28.550013 244.86041 28.128138 244.68854Q27.706263 244.50104 26.909388 244.50104L23.581263 244.50104L23.581263 243.45416L29.800013 243.45416L29.800013 244.39166ZM29.800013 241.46979L23.581263 241.46979L23.581263 240.53229L24.456263 240.53229Q23.987513 240.23541 23.721888 239.75104Q23.440638 239.26666 23.440638 238.64166Q23.440638 237.95416 23.721888 237.51666Q24.003138 237.06354 24.518763 236.89166Q23.440638 236.14166 23.440638 234.96979Q23.440638 234.03229 23.956263 233.54791Q24.456263 233.04791 25.534388 233.04791L29.800013 233.04791L29.800013 234.09479L25.878138 234.09479Q25.253138 234.09479 24.971888 234.20416Q24.690638 234.29791 24.518763 234.56354Q24.346888 234.82916 24.346888 235.20416Q24.346888 235.86041 24.784388 236.29791Q25.221888 236.71979 26.190638 236.71979L29.800013 236.71979L29.800013 237.78229L25.753138 237.78229Q25.050013 237.78229 24.706263 238.04791Q24.346888 238.29791 24.346888 238.87604Q24.346888 239.32916 24.581263 239.70416Q24.815638 240.07916 25.268763 240.25104Q25.721888 240.42291 26.565638 240.42291L29.800013 240.42291L29.800013 241.46979ZM29.800013 229.50104L29.800013 230.48541L21.206263 230.48541L21.206263 229.42291L24.268763 229.42291Q23.440638 228.75104 23.440638 227.71979Q23.440638 227.14166 23.675013 226.64166Q23.893763 226.12604 24.315638 225.79791Q24.737513 225.45416 25.331263 225.26666Q25.925013 225.07916 26.596888 225.07916Q28.190638 225.07916 29.065638 225.87604Q29.940638 226.67291 29.940638 227.76666Q29.940638 228.87604 29.018763 229.50104L29.800013 229.50104ZM26.643763 229.51666Q27.753138 229.51666 28.253138 229.20416Q29.065638 228.70416 29.065638 227.86041Q29.065638 227.17291 28.471888 226.67291Q27.878138 226.15729 26.675013 226.15729Q25.456263 226.15729 24.878138 226.64166Q24.300013 227.12604 24.300013 227.81354Q24.300013 228.50104 24.909388 229.01666Q25.503138 229.51666 26.643763 229.51666ZM27.800013 219.21979L27.925013 218.12604Q28.878138 218.37604 29.409388 219.07916Q29.940638 219.78229 29.940638 220.86041Q29.940638 222.21979 29.096888 223.03229Q28.253138 223.82916 26.737513 223.82916Q25.175013 223.82916 24.315638 223.01666Q23.440638 222.20416 23.440638 220.92291Q23.440638 219.67291 24.284388 218.89166Q25.128138 218.09479 26.675013 218.09479Q26.768763 218.09479 26.956263 218.09479L26.956263 222.73541Q27.987513 222.67291 28.534388 222.15729Q29.065638 221.64166 29.065638 220.86041Q29.065638 220.28229 28.768763 219.87604Q28.456263 219.45416 27.800013 219.21979ZM26.096888 222.67291L26.096888 219.20416Q25.300013 219.26666 24.909388 219.59479Q24.300013 220.11041 24.300013 220.90729Q24.300013 221.64166 24.784388 222.14166Q25.268763 222.62604 26.096888 222.67291ZM29.800013 216.48541L23.581263 216.48541L23.581263 215.53229L24.518763 215.53229Q23.862513 215.17291 23.659388 214.87604Q23.440638 214.56354 23.440638 214.18854Q23.440638 213.65729 23.768763 213.11041L24.753138 213.46979Q24.518763 213.86041 24.518763 214.23541Q24.518763 214.59479 24.737513 214.87604Q24.940638 215.14166 25.315638 215.25104Q25.878138 215.43854 26.534388 215.43854L29.800013 215.43854L29.800013 216.48541ZM26.690638 209.86041Q24.956263 209.86041 24.128138 208.90729Q23.440638 208.11041 23.440638 206.95416Q23.440638 205.67291 24.284388 204.86041Q25.112513 204.03229 26.596888 204.03229Q27.800013 204.03229 28.487513 204.39166Q29.175013 204.75104 29.565638 205.45416Q29.940638 206.14166 29.940638 206.95416Q29.940638 208.25104 29.112513 209.06354Q28.268763 209.86041 26.690638 209.86041ZM26.690638 208.78229Q27.878138 208.78229 28.471888 208.26666Q29.065638 207.73541 29.065638 206.95416Q29.065638 206.15729 28.471888 205.64166Q27.878138 205.12604 26.659388 205.12604Q25.503138 205.12604 24.909388 205.65729Q24.315638 206.17291 24.315638 206.95416Q24.315638 207.73541 24.909388 208.26666Q25.487513 208.78229 26.690638 208.78229ZM29.800013 202.21979L24.393763 202.21979L24.393763 203.15729L23.581263 203.15729L23.581263 202.21979L22.909388 202.21979Q22.284388 202.21979 21.987513 202.11041Q21.565638 201.95416 21.315638 201.57916Q21.065638 201.18854 21.065638 200.50104Q21.065638 200.04791 21.175013 199.51666L22.081263 199.67291Q22.034388 200.00104 22.034388 200.29791Q22.034388 200.78229 22.237513 200.98541Q22.440638 201.17291 23.003138 201.17291L23.581263 201.17291L23.581263 199.95416L24.393763 199.95416L24.393763 201.17291L29.800013 201.17291L29.800013 202.21979ZM29.800013 196.34479L21.206263 196.34479L21.206263 195.18854L27.956263 190.67291L21.206263 190.67291L21.206263 189.57916L29.800013 189.57916L29.800013 190.75104L23.050013 195.26666L29.800013 195.26666L29.800013 196.34479ZM26.425013 183.31354L25.425013 183.31354L25.409388 179.68854L28.596888 179.68854Q29.268763 180.51666 29.612513 181.40729Q29.940638 182.29791 29.940638 183.23541Q29.940638 184.50104 29.409388 185.54791Q28.862513 186.57916 27.846888 187.11041Q26.815638 187.62604 25.550013 187.62604Q24.284388 187.62604 23.206263 187.11041Q22.112513 186.57916 21.596888 185.59479Q21.065638 184.61041 21.065638 183.32916Q21.065638 182.39166 21.362513 181.64166Q21.659388 180.89166 22.206263 180.46979Q22.737513 180.03229 23.612513 179.81354L23.893763 180.82916Q23.237513 181.03229 22.862513 181.32916Q22.487513 181.61041 22.268763 182.14166Q22.034388 182.67291 22.034388 183.31354Q22.034388 184.09479 22.268763 184.67291Q22.503138 185.23541 22.893763 185.59479Q23.284388 185.93854 23.753138 186.12604Q24.550013 186.45416 25.471888 186.45416Q26.628138 186.45416 27.409388 186.06354Q28.175013 185.65729 28.550013 184.90729Q28.925013 184.15729 28.925013 183.29791Q28.925013 182.56354 28.643763 181.86041Q28.346888 181.15729 28.034388 180.79791L26.425013 180.79791L26.425013 183.31354ZM29.800013 178.34479L21.206263 178.34479L21.206263 175.37604Q21.206263 174.37604 21.331263 173.84479Q21.503138 173.11041 21.940638 172.59479Q22.518763 171.90729 23.425013 171.57916Q24.315638 171.23541 25.456263 171.23541Q26.440638 171.23541 27.190638 171.46979Q27.940638 171.68854 28.440638 172.04791Q28.940638 172.40729 29.221888 172.84479Q29.503138 173.26666 29.659388 173.86041Q29.800013 174.45416 29.800013 175.23541L29.800013 178.34479ZM28.784388 177.20416L28.784388 175.37604Q28.784388 174.51666 28.628138 174.03229Q28.471888 173.54791 28.175013 173.26666Q27.784388 172.86041 27.096888 172.64166Q26.409388 172.40729 25.440638 172.40729Q24.096888 172.40729 23.378138 172.86041Q22.643763 173.29791 22.393763 173.92291Q22.221888 174.39166 22.221888 175.39166L22.221888 177.20416L28.784388 177.20416ZM29.800013 166.39166L21.206263 166.39166L21.206263 163.15729Q21.206263 162.17291 21.471888 161.57916Q21.737513 160.98541 22.284388 160.65729Q22.815638 160.31354 23.409388 160.31354Q23.956263 160.31354 24.440638 160.61041Q24.925013 160.90729 25.221888 161.51666Q25.456263 160.73541 26.018763 160.32916Q26.565638 159.90729 27.315638 159.90729Q27.909388 159.90729 28.440638 160.15729Q28.956263 160.40729 29.237513 160.78229Q29.518763 161.15729 29.659388 161.73541Q29.800013 162.29791 29.800013 163.11041L29.800013 166.39166ZM24.815638 165.25104L24.815638 163.39166Q24.815638 162.64166 24.721888 162.31354Q24.596888 161.87604 24.300013 161.65729Q23.987513 161.43854 23.534388 161.43854Q23.112513 161.43854 22.784388 161.64166Q22.456263 161.84479 22.346888 162.23541Q22.221888 162.61041 22.221888 163.53229L22.221888 165.25104L24.815638 165.25104ZM28.784388 165.25104L28.784388 163.11041Q28.784388 162.56354 28.737513 162.34479Q28.675013 161.93854 28.518763 161.68854Q28.346888 161.42291 28.034388 161.25104Q27.721888 161.07916 27.315638 161.07916Q26.831263 161.07916 26.471888 161.32916Q26.112513 161.56354 25.971888 162.00104Q25.831263 162.43854 25.831263 163.26666L25.831263 165.25104L28.784388 165.25104ZM29.800013 158.39166L21.206263 158.39166L21.206263 155.15729Q21.206263 154.17291 21.471888 153.57916Q21.737513 152.98541 22.284388 152.65729Q22.815638 152.31354 23.409388 152.31354Q23.956263 152.31354 24.440638 152.61041Q24.925013 152.90729 25.221888 153.51666Q25.456263 152.73541 26.018763 152.32916Q26.565638 151.90729 27.315638 151.90729Q27.909388 151.90729 28.440638 152.15729Q28.956263 152.40729 29.237513 152.78229Q29.518763 153.15729 29.659388 153.73541Q29.800013 154.29791 29.800013 155.11041L29.800013 158.39166ZM24.815638 157.25104L24.815638 155.39166Q24.815638 154.64166 24.721888 154.31354Q24.596888 153.87604 24.300013 153.65729Q23.987513 153.43854 23.534388 153.43854Q23.112513 153.43854 22.784388 153.64166Q22.456263 153.84479 22.346888 154.23541Q22.221888 154.61041 22.221888 155.53229L22.221888 157.25104L24.815638 157.25104ZM28.784388 157.25104L28.784388 155.11041Q28.784388 154.56354 28.737513 154.34479Q28.675013 153.93854 28.518763 153.68854Q28.346888 153.42291 28.034388 153.25104Q27.721888 153.07916 27.315638 153.07916Q26.831263 153.07916 26.471888 153.32916Q26.112513 153.56354 25.971888 154.00104Q25.831263 154.43854 25.831263 155.26666L25.831263 157.25104L28.784388 157.25104ZM27.940638 150.89166L27.784388 149.86041Q28.409388 149.76666 28.737513 149.37604Q29.065638 148.96979 29.065638 148.23541Q29.065638 147.51666 28.784388 147.17291Q28.487513 146.81354 28.081263 146.81354Q27.721888 146.81354 27.518763 147.12604Q27.378138 147.34479 27.159388 148.20416Q26.862513 149.36041 26.659388 149.81354Q26.440638 150.25104 26.065638 150.48541Q25.690638 150.71979 25.221888 150.71979Q24.815638 150.71979 24.456263 150.53229Q24.096888 150.34479 23.862513 150.01666Q23.690638 149.76666 23.565638 149.34479Q23.440638 148.92291 23.440638 148.42291Q23.440638 147.70416 23.659388 147.15729Q23.862513 146.59479 24.221888 146.32916Q24.581263 146.06354 25.175013 145.96979L25.315638 147.00104Q24.846888 147.06354 24.581263 147.40729Q24.300013 147.73541 24.300013 148.36041Q24.300013 149.07916 24.550013 149.39166Q24.784388 149.70416 25.112513 149.70416Q25.315638 149.70416 25.471888 149.57916Q25.643763 149.43854 25.753138 149.17291Q25.815638 149.01666 26.018763 148.23541Q26.331263 147.11041 26.518763 146.67291Q26.706263 146.23541 27.065638 145.98541Q27.425013 145.73541 27.971888 145.73541Q28.503138 145.73541 28.971888 146.04791Q29.425013 146.34479 29.690638 146.92291Q29.940638 147.50104 29.940638 148.23541Q29.940638 149.45416 29.440638 150.09479Q28.925013 150.71979 27.940638 150.89166Z" fill-rule="nonzero"/><path fill="#000000" d="M82.3 336.96564Q82.3 335.4344 82.6125 334.5125Q82.925 333.575 83.53438 333.075Q84.15938 332.575 85.09688 332.575Q85.78438 332.575 86.3 332.85626Q86.83125 333.1375 87.175 333.66876Q87.51875 334.1844 87.70625 334.9344Q87.89375 335.6844 87.89375 336.96564Q87.89375 338.48126 87.58125 339.40314Q87.28438 340.325 86.65938 340.84064Q86.05 341.34064 85.09688 341.34064Q83.8625 341.34064 83.14375 340.45Q82.3 339.3875 82.3 336.96564ZM83.37813 336.96564Q83.37813 339.075 83.87813 339.77814Q84.37813 340.48126 85.09688 340.48126Q85.83125 340.48126 86.31563 339.77814Q86.81563 339.075 86.81563 336.96564Q86.81563 334.84064 86.31563 334.15314Q85.83125 333.45 85.08125 333.45Q84.3625 333.45 83.925 334.0594Q83.37813 334.84064 83.37813 336.96564Z" fill-rule="nonzero"/><path fill="#000000" d="M58.3 243.99445L59.409374 243.9007Q59.534374 244.7132 59.971874 245.11945Q60.425 245.5257 61.065624 245.5257Q61.815624 245.5257 62.346874 244.94757Q62.878124 244.36945 62.878124 243.43195Q62.878124 242.5257 62.3625 242.01007Q61.8625 241.47882 61.034374 241.47882Q60.534374 241.47882 60.1125 241.7132Q59.70625 241.94757 59.471874 242.30695L58.4875 242.18195L59.315624 237.7757L63.596874 237.7757L63.596874 238.7757L60.159374 238.7757L59.70625 241.0882Q60.471874 240.54132 61.315624 240.54132Q62.440624 240.54132 63.20625 241.32257Q63.9875 242.10382 63.9875 243.3382Q63.9875 244.49445 63.315624 245.35382Q62.4875 246.38507 61.065624 246.38507Q59.89375 246.38507 59.14375 245.72882Q58.409374 245.07257 58.3 243.99445ZM65.8625 246.24445L65.8625 245.04132L67.06563 245.04132L67.06563 246.24445Q67.06563 246.9007 66.83125 247.30695Q66.59688 247.72882 66.09688 247.94757L65.8 247.49445Q66.12813 247.35382 66.28438 247.05695Q66.44063 246.7757 66.47188 246.24445L65.8625 246.24445ZM68.3 242.01007Q68.3 240.47882 68.6125 239.55695Q68.925 238.61945 69.53438 238.11945Q70.15938 237.61945 71.09688 237.61945Q71.78438 237.61945 72.3 237.9007Q72.83125 238.18195 73.175 238.7132Q73.51875 239.22882 73.70625 239.97882Q73.89375 240.72882 73.89375 242.01007Q73.89375 243.5257 73.58125 244.44757Q73.28438 245.36945 72.65938 245.88507Q72.05 246.38507 71.09688 246.38507Q69.8625 246.38507 69.14375 245.49445Q68.3 244.43195 68.3 242.01007ZM69.37813 242.01007Q69.37813 244.11945 69.87813 244.82257Q70.37813 245.5257 71.09688 245.5257Q71.83125 245.5257 72.31563 244.82257Q72.81563 244.11945 72.81563 242.01007Q72.81563 239.88507 72.31563 239.19757Q71.83125 238.49445 71.08125 238.49445Q70.3625 238.49445 69.925 239.10382Q69.37813 239.88507 69.37813 242.01007ZM75.3 242.01007Q75.3 240.47882 75.6125 239.55695Q75.925 238.61945 76.53438 238.11945Q77.15938 237.61945 78.09688 237.61945Q78.78438 237.61945 79.3 237.9007Q79.83125 238.18195 80.175 238.7132Q80.51875 239.22882 80.70625 239.97882Q80.89375 240.72882 80.89375 242.01007Q80.89375 243.5257 80.58125 244.44757Q80.28438 245.36945 79.65938 245.88507Q79.05 246.38507 78.09688 246.38507Q76.8625 246.38507 76.14375 245.49445Q75.3 244.43195 75.3 242.01007ZM76.37813 242.01007Q76.37813 244.11945 76.87813 244.82257Q77.37813 245.5257 78.09688 245.5257Q78.83125 245.5257 79.31563 244.82257Q79.81563 244.11945 79.81563 242.01007Q79.81563 239.88507 79.31563 239.19757Q78.83125 238.49445 78.08125 238.49445Q77.3625 238.49445 76.925 239.10382Q76.37813 239.88507 76.37813 242.01007ZM82.3 242.01007Q82.3 240.47882 82.6125 239.55695Q82.925 238.61945 83.53438 238.11945Q84.15938 237.61945 85.09688 237.61945Q85.78438 237.61945 86.3 237.9007Q86.83125 238.18195 87.175 238.7132Q87.51875 239.22882 87.70625 239.97882Q87.89375 240.72882 87.89375 242.01007Q87.89375 243.5257 87.58125 244.44757Q87.28438 245.36945 86.65938 245.88507Q86.05 246.38507 85.09688 246.38507Q83.8625 246.38507 83.14375 245.49445Q82.3 244.43195 82.3 242.01007ZM83.37813 242.01007Q83.37813 244.11945 83.87813 244.82257Q84.37813 245.5257 85.09688 245.5257Q85.83125 245.5257 86.31563 244.82257Q86.81563 244.11945 86.81563 242.01007Q86.81563 239.88507 86.31563 239.19757Q85.83125 238.49445 85.08125 238.49445Q84.3625 238.49445 83.925 239.10382Q83.37813 239.88507 83.37813 242.01007Z" fill-rule="nonzero"/><path fill="#000000" d="M55.26875 151.2889L54.221874 151.2889L54.221874 144.57014Q53.83125 144.92952 53.20625 145.30452Q52.596874 145.6639 52.1125 145.83577L52.1125 144.82014Q52.9875 144.39827 53.64375 143.82014Q54.315624 143.2264 54.596874 142.6639L55.26875 142.6639L55.26875 151.2889ZM58.3 147.05452Q58.3 145.52327 58.6125 144.6014Q58.925 143.6639 59.534374 143.1639Q60.159374 142.6639 61.096874 142.6639Q61.784374 142.6639 62.3 142.94514Q62.83125 143.2264 63.175 143.75764Q63.51875 144.27327 63.70625 145.02327Q63.89375 145.77327 63.89375 147.05452Q63.89375 148.57014 63.58125 149.49202Q63.284374 150.4139 62.659374 150.92952Q62.05 151.42952 61.096874 151.42952Q59.8625 151.42952 59.14375 150.5389Q58.3 149.4764 58.3 147.05452ZM59.378124 147.05452Q59.378124 149.1639 59.878124 149.86702Q60.378124 150.57014 61.096874 150.57014Q61.83125 150.57014 62.315624 149.86702Q62.815624 149.1639 62.815624 147.05452Q62.815624 144.92952 62.315624 144.24202Q61.83125 143.5389 61.08125 143.5389Q60.3625 143.5389 59.925 144.14827Q59.378124 144.92952 59.378124 147.05452ZM65.8625 151.2889L65.8625 150.08577L67.06563 150.08577L67.06563 151.2889Q67.06563 151.94514 66.83125 152.3514Q66.59688 152.77327 66.09688 152.99202L65.8 152.5389Q66.12813 152.39827 66.28438 152.1014Q66.44063 151.82014 66.47188 151.2889L65.8625 151.2889ZM68.3 147.05452Q68.3 145.52327 68.6125 144.6014Q68.925 143.6639 69.53438 143.1639Q70.15938 142.6639 71.09688 142.6639Q71.78438 142.6639 72.3 142.94514Q72.83125 143.2264 73.175 143.75764Q73.51875 144.27327 73.70625 145.02327Q73.89375 145.77327 73.89375 147.05452Q73.89375 148.57014 73.58125 149.49202Q73.28438 150.4139 72.65938 150.92952Q72.05 151.42952 71.09688 151.42952Q69.8625 151.42952 69.14375 150.5389Q68.3 149.4764 68.3 147.05452ZM69.37813 147.05452Q69.37813 149.1639 69.87813 149.86702Q70.37813 150.57014 71.09688 150.57014Q71.83125 150.57014 72.31563 149.86702Q72.81563 149.1639 72.81563 147.05452Q72.81563 144.92952 72.31563 144.24202Q71.83125 143.5389 71.08125 143.5389Q70.3625 143.5389 69.925 144.14827Q69.37813 144.92952 69.37813 147.05452ZM75.3 147.05452Q75.3 145.52327 75.6125 144.6014Q75.925 143.6639 76.53438 143.1639Q77.15938 142.6639 78.09688 142.6639Q78.78438 142.6639 79.3 142.94514Q79.83125 143.2264 80.175 143.75764Q80.51875 144.27327 80.70625 145.02327Q80.89375 145.77327 80.89375 147.05452Q80.89375 148.57014 80.58125 149.49202Q80.28438 150.4139 79.65938 150.92952Q79.05 151.42952 78.09688 151.42952Q76.8625 151.42952 76.14375 150.5389Q75.3 149.4764 75.3 147.05452ZM76.37813 147.05452Q76.37813 149.1639 76.87813 149.86702Q77.37813 150.57014 78.09688 150.57014Q78.83125 150.57014 79.31563 149.86702Q79.81563 149.1639 79.81563 147.05452Q79.81563 144.92952 79.31563 144.24202Q78.83125 143.5389 78.08125 143.5389Q77.3625 143.5389 76.925 144.14827Q76.37813 144.92952 76.37813 147.05452ZM82.3 147.05452Q82.3 145.52327 82.6125 144.6014Q82.925 143.6639 83.53438 143.1639Q84.15938 142.6639 85.09688 142.6639Q85.78438 142.6639 86.3 142.94514Q86.83125 143.2264 87.175 143.75764Q87.51875 144.27327 87.70625 145.02327Q87.89375 145.77327 87.89375 147.05452Q87.89375 148.57014 87.58125 149.49202Q87.28438 150.4139 86.65938 150.92952Q86.05 151.42952 85.09688 151.42952Q83.8625 151.42952 83.14375 150.5389Q82.3 149.4764 82.3 147.05452ZM83.37813 147.05452Q83.37813 149.1639 83.87813 149.86702Q84.37813 150.57014 85.09688 150.57014Q85.83125 150.57014 86.31563 149.86702Q86.81563 149.1639 86.81563 147.05452Q86.81563 144.92952 86.31563 144.24202Q85.83125 143.5389 85.08125 143.5389Q84.3625 143.5389 83.925 144.14827Q83.37813 144.92952 83.37813 147.05452Z" fill-rule="nonzero"/><path fill="#000000" d="M55.26875 56.333332L54.221874 56.333332L54.221874 49.614582Q53.83125 49.973957 53.20625 50.348957Q52.596874 50.708332 52.1125 50.880207L52.1125 49.864582Q52.9875 49.442707 53.64375 48.864582Q54.315624 48.270832 54.596874 47.708332L55.26875 47.708332L55.26875 56.333332ZM58.3 54.083332L59.409374 53.989582Q59.534374 54.802082 59.971874 55.208332Q60.425 55.614582 61.065624 55.614582Q61.815624 55.614582 62.346874 55.036457Q62.878124 54.458332 62.878124 53.520832Q62.878124 52.614582 62.3625 52.098957Q61.8625 51.567707 61.034374 51.567707Q60.534374 51.567707 60.1125 51.802082Q59.70625 52.036457 59.471874 52.395832L58.4875 52.270832L59.315624 47.864582L63.596874 47.864582L63.596874 48.864582L60.159374 48.864582L59.70625 51.177082Q60.471874 50.630207 61.315624 50.630207Q62.440624 50.630207 63.20625 51.411457Q63.9875 52.192707 63.9875 53.427082Q63.9875 54.583332 63.315624 55.442707Q62.4875 56.473957 61.065624 56.473957Q59.89375 56.473957 59.14375 55.817707Q58.409374 55.161457 58.3 54.083332ZM65.8625 56.333332L65.8625 55.130207L67.06563 55.130207L67.06563 56.333332Q67.06563 56.989582 66.83125 57.395832Q66.59688 57.817707 66.09688 58.036457L65.8 57.583332Q66.12813 57.442707 66.28438 57.145832Q66.44063 56.864582 66.47188 56.333332L65.8625 56.333332ZM68.3 52.098957Q68.3 50.567707 68.6125 49.645832Q68.925 48.708332 69.53438 48.208332Q70.15938 47.708332 71.09688 47.708332Q71.78438 47.708332 72.3 47.989582Q72.83125 48.270832 73.175 48.802082Q73.51875 49.317707 73.70625 50.067707Q73.89375 50.817707 73.89375 52.098957Q73.89375 53.614582 73.58125 54.536457Q73.28438 55.458332 72.65938 55.973957Q72.05 56.473957 71.09688 56.473957Q69.8625 56.473957 69.14375 55.583332Q68.3 54.520832 68.3 52.098957ZM69.37813 52.098957Q69.37813 54.208332 69.87813 54.911457Q70.37813 55.614582 71.09688 55.614582Q71.83125 55.614582 72.31563 54.911457Q72.81563 54.208332 72.81563 52.098957Q72.81563 49.973957 72.31563 49.286457Q71.83125 48.583332 71.08125 48.583332Q70.3625 48.583332 69.925 49.192707Q69.37813 49.973957 69.37813 52.098957ZM75.3 52.098957Q75.3 50.567707 75.6125 49.645832Q75.925 48.708332 76.53438 48.208332Q77.15938 47.708332 78.09688 47.708332Q78.78438 47.708332 79.3 47.989582Q79.83125 48.270832 80.175 48.802082Q80.51875 49.317707 80.70625 50.067707Q80.89375 50.817707 80.89375 52.098957Q80.89375 53.614582 80.58125 54.536457Q80.28438 55.458332 79.65938 55.973957Q79.05 56.473957 78.09688 56.473957Q76.8625 56.473957 76.14375 55.583332Q75.3 54.520832 75.3 52.098957ZM76.37813 52.098957Q76.37813 54.208332 76.87813 54.911457Q77.37813 55.614582 78.09688 55.614582Q78.83125 55.614582 79.31563 54.911457Q79.81563 54.208332 79.81563 52.098957Q79.81563 49.973957 79.31563 49.286457Q78.83125 48.583332 78.08125 48.583332Q77.3625 48.583332 76.925 49.192707Q76.37813 49.973957 76.37813 52.098957ZM82.3 52.098957Q82.3 50.567707 82.6125 49.645832Q82.925 48.708332 83.53438 48.208332Q84.15938 47.708332 85.09688 47.708332Q85.78438 47.708332 86.3 47.989582Q86.83125 48.270832 87.175 48.802082Q87.51875 49.317707 87.70625 50.067707Q87.89375 50.817707 87.89375 52.098957Q87.89375 53.614582 87.58125 54.536457Q87.28438 55.458332 86.65938 55.973957Q86.05 56.473957 85.09688 56.473957Q83.8625 56.473957 83.14375 55.583332Q82.3 54.520832 82.3 52.098957ZM83.37813 52.098957Q83.37813 54.208332 83.87813 54.911457Q84.37813 55.614582 85.09688 55.614582Q85.83125 55.614582 86.31563 54.911457Q86.81563 54.208332 86.81563 52.098957Q86.81563 49.973957 86.31563 49.286457Q85.83125 48.583332 85.08125 48.583332Q84.3625 48.583332 83.925 49.192707Q83.37813 49.973957 83.37813 52.098957Z" fill-rule="nonzero"/><path fill="#000000" d="M132.97876 354.2L136.27563 345.60626L137.49438 345.60626L141.01001 354.2L139.72876 354.2L138.71313 351.59064L135.13501 351.59064L134.18188 354.2L132.97876 354.2ZM135.46313 350.66876L138.36938 350.66876L137.47876 348.29376Q137.05688 347.21564 136.86938 346.5125Q136.69751 347.34064 136.40063 348.15314L135.46313 350.66876ZM140.86938 354.2L140.86938 345.60626L144.10376 345.60626Q145.08813 345.60626 145.68188 345.8719Q146.27563 346.1375 146.60376 346.6844Q146.94751 347.21564 146.94751 347.8094Q146.94751 348.35626 146.65063 348.84064Q146.35376 349.325 145.74438 349.6219Q146.52563 349.85626 146.93188 350.41876Q147.35376 350.96564 147.35376 351.71564Q147.35376 352.3094 147.10376 352.84064Q146.85376 353.35626 146.47876 353.6375Q146.10376 353.91876 145.52563 354.0594Q144.96313 354.2 144.15063 354.2L140.86938 354.2ZM142.01001 349.21564L143.86938 349.21564Q144.61938 349.21564 144.94751 349.1219Q145.38501 348.9969 145.60376 348.7Q145.82251 348.3875 145.82251 347.9344Q145.82251 347.5125 145.61938 347.1844Q145.41626 346.85626 145.02563 346.7469Q144.65063 346.6219 143.72876 346.6219L142.01001 346.6219L142.01001 349.21564ZM142.01001 353.1844L144.15063 353.1844Q144.69751 353.1844 144.91626 353.1375Q145.32251 353.075 145.57251 352.91876Q145.83813 352.7469 146.01001 352.4344Q146.18188 352.1219 146.18188 351.71564Q146.18188 351.23126 145.93188 350.8719Q145.69751 350.5125 145.26001 350.3719Q144.82251 350.23126 143.99438 350.23126L142.01001 350.23126L142.01001 353.1844Z" fill-rule="nonzero"/><path fill="#000000" d="M182.78699 354.2L182.78699 345.60626L186.02136 345.60626Q187.00574 345.60626 187.59949 345.8719Q188.19324 346.1375 188.52136 346.6844Q188.86511 347.21564 188.86511 347.8094Q188.86511 348.35626 188.56824 348.84064Q188.27136 349.325 187.66199 349.6219Q188.44324 349.85626 188.84949 350.41876Q189.27136 350.96564 189.27136 351.71564Q189.27136 352.3094 189.02136 352.84064Q188.77136 353.35626 188.39636 353.6375Q188.02136 353.91876 187.44324 354.0594Q186.88074 354.2 186.06824 354.2L182.78699 354.2ZM183.92761 349.21564L185.78699 349.21564Q186.53699 349.21564 186.86511 349.1219Q187.30261 348.9969 187.52136 348.7Q187.74011 348.3875 187.74011 347.9344Q187.74011 347.5125 187.53699 347.1844Q187.33386 346.85626 186.94324 346.7469Q186.56824 346.6219 185.64636 346.6219L183.92761 346.6219L183.92761 349.21564ZM183.92761 353.1844L186.06824 353.1844Q186.61511 353.1844 186.83386 353.1375Q187.24011 353.075 187.49011 352.91876Q187.75574 352.7469 187.92761 352.4344Q188.09949 352.1219 188.09949 351.71564Q188.09949 351.23126 187.84949 350.8719Q187.61511 350.5125 187.17761 350.3719Q186.74011 350.23126 185.91199 350.23126L183.92761 350.23126L183.92761 353.1844ZM196.97449 351.1844L198.09949 351.48126Q197.74011 352.8719 196.81824 353.60626Q195.89636 354.34064 194.55261 354.34064Q193.16199 354.34064 192.28699 353.77814Q191.41199 353.21564 190.95886 352.15314Q190.50574 351.075 190.50574 349.84064Q190.50574 348.4969 191.02136 347.4969Q191.53699 346.4969 192.47449 345.98126Q193.42761 345.46564 194.56824 345.46564Q195.84949 345.46564 196.72449 346.1219Q197.61511 346.77814 197.95886 347.96564L196.83386 348.23126Q196.53699 347.29376 195.95886 346.8719Q195.39636 346.4344 194.53699 346.4344Q193.55261 346.4344 192.88074 346.91876Q192.22449 347.3875 191.94324 348.1844Q191.67761 348.98126 191.67761 349.84064Q191.67761 350.9344 191.99011 351.7469Q192.31824 352.5594 192.99011 352.96564Q193.66199 353.3719 194.45886 353.3719Q195.41199 353.3719 196.06824 352.825Q196.74011 352.27814 196.97449 351.1844Z" fill-rule="nonzero"/><path fill="#000000" d="M232.72021 354.2L232.72021 345.60626L234.43896 345.60626L236.47021 351.6844Q236.75146 352.54376 236.87646 352.96564Q237.01709 352.4969 237.32959 351.59064L239.39209 345.60626L240.92334 345.60626L240.92334 354.2L239.82959 354.2L239.82959 347.0125L237.32959 354.2L236.29834 354.2L233.81396 346.8875L233.81396 354.2L232.72021 354.2ZM241.70459 354.2L241.70459 345.60626L244.93896 345.60626Q245.92334 345.60626 246.51709 345.8719Q247.11084 346.1375 247.43896 346.6844Q247.78271 347.21564 247.78271 347.8094Q247.78271 348.35626 247.48584 348.84064Q247.18896 349.325 246.57959 349.6219Q247.36084 349.85626 247.76709 350.41876Q248.18896 350.96564 248.18896 351.71564Q248.18896 352.3094 247.93896 352.84064Q247.68896 353.35626 247.31396 353.6375Q246.93896 353.91876 246.36084 354.0594Q245.79834 354.2 244.98584 354.2L241.70459 354.2ZM242.84521 349.21564L244.70459 349.21564Q245.45459 349.21564 245.78271 349.1219Q246.22021 348.9969 246.43896 348.7Q246.65771 348.3875 246.65771 347.9344Q246.65771 347.5125 246.45459 347.1844Q246.25146 346.85626 245.86084 346.7469Q245.48584 346.6219 244.56396 346.6219L242.84521 346.6219L242.84521 349.21564ZM242.84521 353.1844L244.98584 353.1844Q245.53271 353.1844 245.75146 353.1375Q246.15771 353.075 246.40771 352.91876Q246.67334 352.7469 246.84521 352.4344Q247.01709 352.1219 247.01709 351.71564Q247.01709 351.23126 246.76709 350.8719Q246.53271 350.5125 246.09521 350.3719Q245.65771 350.23126 244.82959 350.23126L242.84521 350.23126L242.84521 353.1844Z" fill-rule="nonzero"/><path fill="#000000" d="M282.66907 354.2L282.66907 345.60626L283.82532 345.60626L288.34094 352.35626L288.34094 345.60626L289.4347 345.60626L289.4347 354.2L288.26282 354.2L283.7472 347.45L283.7472 354.2L282.66907 354.2ZM291.6222 354.2L291.6222 345.60626L294.85657 345.60626Q295.84094 345.60626 296.4347 345.8719Q297.02844 346.1375 297.35657 346.6844Q297.70032 347.21564 297.70032 347.8094Q297.70032 348.35626 297.40344 348.84064Q297.10657 349.325 296.4972 349.6219Q297.27844 349.85626 297.6847 350.41876Q298.10657 350.96564 298.10657 351.71564Q298.10657 352.3094 297.85657 352.84064Q297.60657 353.35626 297.23157 353.6375Q296.85657 353.91876 296.27844 354.0594Q295.71594 354.2 294.90344 354.2L291.6222 354.2ZM292.76282 349.21564L294.6222 349.21564Q295.3722 349.21564 295.70032 349.1219Q296.13782 348.9969 296.35657 348.7Q296.57532 348.3875 296.57532 347.9344Q296.57532 347.5125 296.3722 347.1844Q296.16907 346.85626 295.77844 346.7469Q295.40344 346.6219 294.48157 346.6219L292.76282 346.6219L292.76282 349.21564ZM292.76282 353.1844L294.90344 353.1844Q295.45032 353.1844 295.66907 353.1375Q296.07532 353.075 296.32532 352.91876Q296.59094 352.7469 296.76282 352.4344Q296.9347 352.1219 296.9347 351.71564Q296.9347 351.23126 296.6847 350.8719Q296.45032 350.5125 296.01282 350.3719Q295.57532 350.23126 294.7472 350.23126L292.76282 350.23126L292.76282 353.1844Z" fill-rule="nonzero"/><path fill="#000000" d="M333.08667 354.2L333.08667 345.60626L334.24292 345.60626L338.75854 352.35626L338.75854 345.60626L339.8523 345.60626L339.8523 354.2L338.68042 354.2L334.1648 347.45L334.1648 354.2L333.08667 354.2ZM342.0398 354.2L342.0398 345.60626L343.18042 345.60626L343.18042 353.1844L347.4148 353.1844L347.4148 354.2L342.0398 354.2Z" fill-rule="nonzero"/><path fill="#000000" d="M383.00427 354.2L383.00427 345.60626L384.16052 345.60626L388.67615 352.35626L388.67615 345.60626L389.7699 345.60626L389.7699 354.2L388.59802 354.2L384.0824 347.45L384.0824 354.2L383.00427 354.2ZM394.19177 354.2L394.19177 346.6219L391.36365 346.6219L391.36365 345.60626L398.17615 345.60626L398.17615 346.6219L395.3324 346.6219L395.3324 354.2L394.19177 354.2Z" fill-rule="nonzero"/><path fill="#000000" d="M432.42188 354.2L432.42188 345.60626L433.57812 345.60626L438.09375 352.35626L438.09375 345.60626L439.1875 345.60626L439.1875 354.2L438.01562 354.2L433.5 347.45L433.5 354.2L432.42188 354.2ZM441.04688 351.4344L442.10938 351.34064Q442.1875 351.9969 442.46875 352.40314Q442.75 352.8094 443.32812 353.075Q443.92188 353.325 444.65625 353.325Q445.29688 353.325 445.79688 353.1375Q446.29688 352.9344 446.53125 352.60626Q446.78125 352.2625 446.78125 351.8719Q446.78125 351.46564 446.54688 351.16876Q446.3125 350.85626 445.78125 350.65314Q445.42188 350.5125 444.23438 350.23126Q443.0625 349.95 442.59375 349.7Q441.96875 349.3719 441.67188 348.90314Q441.375 348.41876 441.375 347.825Q441.375 347.1844 441.73438 346.6219Q442.10938 346.04376 442.8125 345.7625Q443.53125 345.46564 444.39062 345.46564Q445.34375 345.46564 446.07812 345.77814Q446.8125 346.075 447.20312 346.6844Q447.59375 347.27814 447.625 348.02814L446.53125 348.10626Q446.4375 347.29376 445.92188 346.8875Q445.42188 346.46564 444.4375 346.46564Q443.40625 346.46564 442.9375 346.84064Q442.46875 347.21564 442.46875 347.7469Q442.46875 348.21564 442.79688 348.5125Q443.125 348.8094 444.5 349.1219Q445.89062 349.4344 446.40625 349.66876Q447.15625 350.02814 447.51562 350.5594Q447.875 351.075 447.875 351.77814Q447.875 352.46564 447.48438 353.075Q447.09375 353.66876 446.35938 354.0125Q445.625 354.34064 444.70312 354.34064Q443.53125 354.34064 442.73438 354.0125Q441.95312 353.66876 441.5 352.98126Q441.0625 352.29376 441.04688 351.4344Z" fill-rule="nonzero"/><path fill="#000000" d="M481.83948 354.2L481.83948 345.60626L482.99573 345.60626L487.51135 352.35626L487.51135 345.60626L488.6051 345.60626L488.6051 354.2L487.43323 354.2L482.9176 347.45L482.9176 354.2L481.83948 354.2ZM496.4801 345.60626L497.62073 345.60626L497.62073 350.575Q497.62073 351.8719 497.32385 352.6375Q497.02698 353.3875 496.26135 353.8719Q495.49573 354.34064 494.26135 354.34064Q493.05823 354.34064 492.27698 353.9344Q491.51135 353.5125 491.18323 352.73126Q490.8551 351.9344 490.8551 350.575L490.8551 345.60626L491.99573 345.60626L491.99573 350.5594Q491.99573 351.6844 492.19885 352.21564Q492.4176 352.7469 492.9176 353.04376Q493.43323 353.325 494.1676 353.325Q495.4176 353.325 495.94885 352.7625Q496.4801 352.1844 496.4801 350.5594L496.4801 345.60626Z" fill-rule="nonzero"/><path fill="#000000" d="M531.4133 350.0125Q531.4133 347.8719 532.55396 346.66876Q533.7102 345.45 535.5227 345.45Q536.7258 345.45 537.67896 346.02814Q538.6321 346.59064 539.1321 347.60626Q539.6321 348.6219 539.6321 349.91876Q539.6321 351.21564 539.1008 352.2469Q538.5696 353.27814 537.6008 353.8094Q536.6477 354.34064 535.5227 354.34064Q534.30396 354.34064 533.3508 353.7625Q532.3977 353.16876 531.8977 352.16876Q531.4133 351.15314 531.4133 350.0125ZM532.5852 350.02814Q532.5852 351.59064 533.4133 352.48126Q534.2571 353.3719 535.5227 353.3719Q536.80396 353.3719 537.6321 352.48126Q538.4602 351.575 538.4602 349.90314Q538.4602 348.85626 538.1008 348.075Q537.7571 347.29376 537.0696 346.8719Q536.3821 346.4344 535.5383 346.4344Q534.3352 346.4344 533.4602 347.2625Q532.5852 348.09064 532.5852 350.02814ZM540.7571 354.2L540.7571 345.60626L541.9133 345.60626L546.42896 352.35626L546.42896 345.60626L547.5227 345.60626L547.5227 354.2L546.3508 354.2L541.8352 347.45L541.8352 354.2L540.7571 354.2Z" fill-rule="nonzero"/><path fill="#000000" d="M582.6747 354.2L582.6747 345.60626L585.9247 345.60626Q586.76843 345.60626 587.22156 345.6844Q587.8622 345.79376 588.28406 346.09064Q588.72156 346.3875 588.97156 346.91876Q589.2372 347.45 589.2372 348.09064Q589.2372 349.1844 588.53406 349.95Q587.84656 350.7 586.01843 350.7L583.8153 350.7L583.8153 354.2L582.6747 354.2ZM583.8153 349.7L586.03406 349.7Q587.14343 349.7 587.59656 349.29376Q588.0653 348.8719 588.0653 348.1219Q588.0653 347.59064 587.78406 347.21564Q587.51843 346.825 587.08093 346.7Q586.78406 346.6219 586.01843 346.6219L583.8153 346.6219L583.8153 349.7ZM590.70593 354.2L590.70593 345.60626L596.90906 345.60626L596.90906 346.6219L591.84656 346.6219L591.84656 349.2469L596.59656 349.2469L596.59656 350.2625L591.84656 350.2625L591.84656 353.1844L597.1122 353.1844L597.1122 354.2L590.70593 354.2Z" fill-rule="nonzero"/><path fill="#000000" d="M638.1079 353.27814Q638.9048 353.825 639.56104 354.075L639.2329 354.8719Q638.31104 354.52814 637.38916 353.8094Q636.43604 354.34064 635.2798 354.34064Q634.1079 354.34064 633.1548 353.77814Q632.2173 353.21564 631.70166 352.2Q631.18604 351.1844 631.18604 349.90314Q631.18604 348.6375 631.70166 347.59064Q632.2173 346.54376 633.1704 345.9969Q634.12354 345.45 635.2954 345.45Q636.4829 345.45 637.43604 346.02814Q638.4048 346.59064 638.9048 347.60626Q639.4048 348.6219 639.4048 349.90314Q639.4048 350.96564 639.07666 351.8094Q638.76416 352.65314 638.1079 353.27814ZM635.6079 351.825Q636.5923 352.10626 637.2329 352.65314Q638.2329 351.73126 638.2329 349.90314Q638.2329 348.85626 637.87354 348.075Q637.51416 347.29376 636.82666 346.8719Q636.1548 346.4344 635.31104 346.4344Q634.0298 346.4344 633.18604 347.3094Q632.3579 348.16876 632.3579 349.90314Q632.3579 351.575 633.18604 352.48126Q634.01416 353.3719 635.31104 353.3719Q635.9204 353.3719 636.45166 353.1375Q635.9204 352.79376 635.32666 352.65314L635.6079 351.825ZM646.7329 351.1844L647.8579 351.48126Q647.49854 352.8719 646.57666 353.60626Q645.6548 354.34064 644.31104 354.34064Q642.9204 354.34064 642.0454 353.77814Q641.1704 353.21564 640.7173 352.15314Q640.26416 351.075 640.26416 349.84064Q640.26416 348.4969 640.7798 347.4969Q641.2954 346.4969 642.2329 345.98126Q643.18604 345.46564 644.32666 345.46564Q645.6079 345.46564 646.4829 346.1219Q647.37354 346.77814 647.7173 347.96564L646.5923 348.23126Q646.2954 347.29376 645.7173 346.8719Q645.1548 346.4344 644.2954 346.4344Q643.31104 346.4344 642.63916 346.91876Q641.9829 347.3875 641.70166 348.1844Q641.43604 348.98126 641.43604 349.84064Q641.43604 350.9344 641.74854 351.7469Q642.07666 352.5594 642.74854 352.96564Q643.4204 353.3719 644.2173 353.3719Q645.1704 353.3719 645.82666 352.825Q646.49854 352.27814 646.7329 351.1844Z" fill-rule="nonzero"/><path fill="#000000" d="M682.1349 351.4344L683.1974 351.34064Q683.2755 351.9969 683.55676 352.40314Q683.838 352.8094 684.41614 353.075Q685.0099 353.325 685.74426 353.325Q686.3849 353.325 686.8849 353.1375Q687.3849 352.9344 687.61926 352.60626Q687.86926 352.2625 687.86926 351.8719Q687.86926 351.46564 687.6349 351.16876Q687.4005 350.85626 686.86926 350.65314Q686.5099 350.5125 685.3224 350.23126Q684.1505 349.95 683.68176 349.7Q683.05676 349.3719 682.7599 348.90314Q682.463 348.41876 682.463 347.825Q682.463 347.1844 682.8224 346.6219Q683.1974 346.04376 683.9005 345.7625Q684.61926 345.46564 685.47864 345.46564Q686.43176 345.46564 687.16614 345.77814Q687.9005 346.075 688.29114 346.6844Q688.68176 347.27814 688.713 348.02814L687.61926 348.10626Q687.5255 347.29376 687.0099 346.8875Q686.5099 346.46564 685.5255 346.46564Q684.49426 346.46564 684.0255 346.84064Q683.55676 347.21564 683.55676 347.7469Q683.55676 348.21564 683.8849 348.5125Q684.213 348.8094 685.588 349.1219Q686.97864 349.4344 687.49426 349.66876Q688.24426 350.02814 688.60364 350.5594Q688.963 351.075 688.963 351.77814Q688.963 352.46564 688.5724 353.075Q688.18176 353.66876 687.4474 354.0125Q686.713 354.34064 685.79114 354.34064Q684.61926 354.34064 683.8224 354.0125Q683.04114 353.66876 682.588 352.98126Q682.1505 352.29376 682.1349 351.4344ZM690.463 354.2L690.463 345.60626L691.60364 345.60626L691.60364 349.8719L695.86926 345.60626L697.41614 345.60626L693.80676 349.09064L697.5724 354.2L696.0724 354.2L693.0099 349.85626L691.60364 351.21564L691.60364 354.2L690.463 354.2Z" fill-rule="nonzero"/><path fill="#000000" d="M735.84937 354.2L735.84937 350.5594L732.53687 345.60626L733.9275 345.60626L735.615 348.2Q736.08374 348.91876 736.49 349.65314Q736.8806 348.98126 737.4275 348.1375L739.09937 345.60626L740.41187 345.60626L736.99 350.5594L736.99 354.2L735.84937 354.2ZM742.615 354.2L742.615 346.6219L739.78687 346.6219L739.78687 345.60626L746.59937 345.60626L746.59937 346.6219L743.7556 346.6219L743.7556 354.2L742.615 354.2Z" fill-rule="nonzero"/><path fill="#4285f4" d="M326.0 20.8C326.0 20.247715 326.44772 19.8 327.0 19.8L337.0 19.8C337.55228 19.8 338.0 20.247715 338.0 20.8L338.0 30.8C338.0 31.352285 337.55228 31.8 337.0 31.8L327.0 31.8C326.44772 31.8 326.0 31.352285 326.0 30.8Z" fill-rule="nonzero"/><path fill="#1a1a1a" d="M346.57812 25.6125Q346.57812 23.471874 347.71875 22.26875Q348.875 21.05 350.6875 21.05Q351.89062 21.05 352.84375 21.628124Q353.79688 22.190624 354.29688 23.20625Q354.79688 24.221874 354.79688 25.51875Q354.79688 26.815624 354.26562 27.846874Q353.73438 28.878124 352.76562 29.409374Q351.8125 29.940624 350.6875 29.940624Q349.46875 29.940624 348.51562 29.3625Q347.5625 28.76875 347.0625 27.76875Q346.57812 26.753124 346.57812 25.6125ZM347.75 25.628124Q347.75 27.190624 348.57812 28.08125Q349.42188 28.971874 350.6875 28.971874Q351.96875 28.971874 352.79688 28.08125Q353.625 27.175 353.625 25.503124Q353.625 24.45625 353.26562 23.675Q352.92188 22.89375 352.23438 22.471874Q351.54688 22.034374 350.70312 22.034374Q349.5 22.034374 348.625 22.8625Q347.75 23.690624 347.75 25.628124ZM355.78125 29.8L355.78125 23.58125L356.73438 23.58125L356.73438 24.51875Q357.09375 23.8625 357.39062 23.659374Q357.70312 23.440624 358.07812 23.440624Q358.60938 23.440624 359.15625 23.76875L358.79688 24.753124Q358.40625 24.51875 358.03125 24.51875Q357.67188 24.51875 357.39062 24.7375Q357.125 24.940624 357.01562 25.315624Q356.82812 25.878124 356.82812 26.534374L356.82812 29.8L355.78125 29.8ZM359.79688 22.425L359.79688 21.20625L360.85938 21.20625L360.85938 22.425L359.79688 22.425ZM359.79688 29.8L359.79688 23.58125L360.85938 23.58125L360.85938 29.8L359.79688 29.8ZM362.59375 30.315624L363.625 30.471874Q363.6875 30.940624 363.98438 31.159374Q364.375 31.45625 365.04688 31.45625Q365.78125 31.45625 366.17188 31.159374Q366.57812 30.8625 366.71875 30.346874Q366.8125 30.01875 366.79688 28.9875Q366.10938 29.8 365.07812 29.8Q363.79688 29.8 363.09375 28.878124Q362.39062 27.940624 362.39062 26.659374Q362.39062 25.76875 362.70312 25.01875Q363.03125 24.253124 363.64062 23.846874Q364.25 23.440624 365.07812 23.440624Q366.1875 23.440624 366.90625 24.33125L366.90625 23.58125L367.875 23.58125L367.875 28.95625Q367.875 30.409374 367.57812 31.01875Q367.28125 31.628124 366.64062 31.971874Q366.0 32.33125 365.0625 32.33125Q363.95312 32.33125 363.26562 31.83125Q362.57812 31.33125 362.59375 30.315624ZM363.46875 26.58125Q363.46875 27.8 363.95312 28.3625Q364.4375 28.925 365.17188 28.925Q365.90625 28.925 366.39062 28.3625Q366.89062 27.8 366.89062 26.6125Q366.89062 25.471874 366.375 24.89375Q365.875 24.315624 365.15625 24.315624Q364.45312 24.315624 363.95312 24.89375Q363.46875 25.45625 363.46875 26.58125ZM369.79688 22.425L369.79688 21.20625L370.85938 21.20625L370.85938 22.425L369.79688 22.425ZM369.79688 29.8L369.79688 23.58125L370.85938 23.58125L370.85938 29.8L369.79688 29.8ZM372.79688 29.8L372.79688 23.58125L373.73438 23.58125L373.73438 24.45625Q374.42188 23.440624 375.71875 23.440624Q376.28125 23.440624 376.75 23.64375Q377.23438 23.846874 377.46875 24.175Q377.70312 24.503124 377.79688 24.940624Q377.84375 25.2375 377.84375 25.971874L377.84375 29.8L376.79688 29.8L376.79688 26.01875Q376.79688 25.3625 376.67188 25.05Q376.54688 24.7375 376.23438 24.55Q375.92188 24.346874 375.5 24.346874Q374.82812 24.346874 374.32812 24.784374Q373.84375 25.20625 373.84375 26.39375L373.84375 29.8L372.79688 29.8ZM383.85938 29.034374Q383.26562 29.534374 382.71875 29.7375Q382.1875 29.940624 381.5625 29.940624Q380.53125 29.940624 379.98438 29.440624Q379.4375 28.940624 379.4375 28.159374Q379.4375 27.70625 379.64062 27.33125Q379.84375 26.940624 380.1875 26.721874Q380.53125 26.4875 380.95312 26.378124Q381.25 26.284374 381.89062 26.20625Q383.15625 26.065624 383.76562 25.846874Q383.76562 25.628124 383.76562 25.58125Q383.76562 24.925 383.46875 24.659374Q383.0625 24.315624 382.26562 24.315624Q381.53125 24.315624 381.17188 24.58125Q380.8125 24.83125 380.64062 25.4875L379.60938 25.346874Q379.75 24.690624 380.07812 24.284374Q380.40625 23.878124 381.01562 23.659374Q381.625 23.440624 382.42188 23.440624Q383.21875 23.440624 383.71875 23.628124Q384.21875 23.815624 384.45312 24.096874Q384.6875 24.378124 384.78125 24.815624Q384.82812 25.08125 384.82812 25.784374L384.82812 27.190624Q384.82812 28.659374 384.89062 29.05Q384.96875 29.440624 385.17188 29.8L384.0625 29.8Q383.90625 29.471874 383.85938 29.034374ZM383.76562 26.675Q383.1875 26.909374 382.04688 27.08125Q381.39062 27.175 381.125 27.3Q380.85938 27.409374 380.70312 27.628124Q380.5625 27.846874 380.5625 28.128124Q380.5625 28.55 380.875 28.83125Q381.20312 29.1125 381.8125 29.1125Q382.42188 29.1125 382.89062 28.846874Q383.375 28.58125 383.59375 28.1125Q383.76562 27.753124 383.76562 27.065624L383.76562 26.675ZM386.76562 29.8L386.76562 21.20625L387.82812 21.20625L387.82812 29.8L386.76562 29.8Z" fill-rule="nonzero"/><path fill="#ea4335" d="M405.0 20.8C405.0 20.247715 405.44772 19.8 406.0 19.8L416.0 19.8C416.55228 19.8 417.0 20.247715 417.0 20.8L417.0 30.8C417.0 31.352285 416.55228 31.8 416.0 31.8L406.0 31.8C405.44772 31.8 405.0 31.352285 405.0 30.8Z" fill-rule="nonzero"/><path fill="#1a1a1a" d="M432.0625 26.784374L433.1875 27.08125Q432.82812 28.471874 431.90625 29.20625Q430.98438 29.940624 429.64062 29.940624Q428.25 29.940624 427.375 29.378124Q426.5 28.815624 426.04688 27.753124Q425.59375 26.675 425.59375 25.440624Q425.59375 24.096874 426.10938 23.096874Q426.625 22.096874 427.5625 21.58125Q428.51562 21.065624 429.65625 21.065624Q430.9375 21.065624 431.8125 21.721874Q432.70312 22.378124 433.04688 23.565624L431.92188 23.83125Q431.625 22.89375 431.04688 22.471874Q430.48438 22.034374 429.625 22.034374Q428.64062 22.034374 427.96875 22.51875Q427.3125 22.9875 427.03125 23.784374Q426.76562 24.58125 426.76562 25.440624Q426.76562 26.534374 427.07812 27.346874Q427.40625 28.159374 428.07812 28.565624Q428.75 28.971874 429.54688 28.971874Q430.5 28.971874 431.15625 28.425Q431.82812 27.878124 432.0625 26.784374ZM438.875 29.8L438.875 28.878124Q438.14062 29.940624 436.89062 29.940624Q436.34375 29.940624 435.85938 29.7375Q435.39062 29.51875 435.15625 29.20625Q434.92188 28.878124 434.82812 28.409374Q434.76562 28.1125 434.76562 27.425L434.76562 23.58125L435.82812 23.58125L435.82812 27.034374Q435.82812 27.846874 435.89062 28.14375Q435.98438 28.55 436.29688 28.8Q436.625 29.034374 437.10938 29.034374Q437.57812 29.034374 437.98438 28.8Q438.40625 28.55 438.57812 28.128124Q438.76562 27.70625 438.76562 26.909374L438.76562 23.58125L439.8125 23.58125L439.8125 29.8L438.875 29.8ZM441.78125 29.8L441.78125 23.58125L442.73438 23.58125L442.73438 24.51875Q443.09375 23.8625 443.39062 23.659374Q443.70312 23.440624 444.07812 23.440624Q444.60938 23.440624 445.15625 23.76875L444.79688 24.753124Q444.40625 24.51875 444.03125 24.51875Q443.67188 24.51875 443.39062 24.7375Q443.125 24.940624 443.01562 25.315624Q442.82812 25.878124 442.82812 26.534374L442.82812 29.8L441.78125 29.8ZM445.78125 29.8L445.78125 23.58125L446.73438 23.58125L446.73438 24.51875Q447.09375 23.8625 447.39062 23.659374Q447.70312 23.440624 448.07812 23.440624Q448.60938 23.440624 449.15625 23.76875L448.79688 24.753124Q448.40625 24.51875 448.03125 24.51875Q447.67188 24.51875 447.39062 24.7375Q447.125 24.940624 447.01562 25.315624Q446.82812 25.878124 446.82812 26.534374L446.82812 29.8L445.78125 29.8ZM454.04688 27.8L455.14062 27.925Q454.89062 28.878124 454.1875 29.409374Q453.48438 29.940624 452.40625 29.940624Q451.04688 29.940624 450.23438 29.096874Q449.4375 28.253124 449.4375 26.7375Q449.4375 25.175 450.25 24.315624Q451.0625 23.440624 452.34375 23.440624Q453.59375 23.440624 454.375 24.284374Q455.17188 25.128124 455.17188 26.675Q455.17188 26.76875 455.17188 26.95625L450.53125 26.95625Q450.59375 27.9875 451.10938 28.534374Q451.625 29.065624 452.40625 29.065624Q452.98438 29.065624 453.39062 28.76875Q453.8125 28.45625 454.04688 27.8ZM450.59375 26.096874L454.0625 26.096874Q454.0 25.3 453.67188 24.909374Q453.15625 24.3 452.35938 24.3Q451.625 24.3 451.125 24.784374Q450.64062 25.26875 450.59375 26.096874ZM456.79688 29.8L456.79688 23.58125L457.73438 23.58125L457.73438 24.45625Q458.42188 23.440624 459.71875 23.440624Q460.28125 23.440624 460.75 23.64375Q461.23438 23.846874 461.46875 24.175Q461.70312 24.503124 461.79688 24.940624Q461.84375 25.2375 461.84375 25.971874L461.84375 29.8L460.79688 29.8L460.79688 26.01875Q460.79688 25.3625 460.67188 25.05Q460.54688 24.7375 460.23438 24.55Q459.92188 24.346874 459.5 24.346874Q458.82812 24.346874 458.32812 24.784374Q457.84375 25.20625 457.84375 26.39375L457.84375 29.8L456.79688 29.8ZM466.09375 28.8625L466.25 29.784374Q465.79688 29.878124 465.45312 29.878124Q464.875 29.878124 464.5625 29.70625Q464.25 29.51875 464.10938 29.221874Q463.98438 28.925 463.98438 27.971874L463.98438 24.39375L463.21875 24.39375L463.21875 23.58125L463.98438 23.58125L463.98438 22.034374L465.03125 21.409374L465.03125 23.58125L466.09375 23.58125L466.09375 24.39375L465.03125 24.39375L465.03125 28.034374Q465.03125 28.4875 465.07812 28.6125Q465.14062 28.7375 465.26562 28.815624Q465.39062 28.89375 465.625 28.89375Q465.8125 28.89375 466.09375 28.8625Z" fill-rule="nonzero"/></svg>